<?xml version="1.0" encoding="UTF-8" standalone="no"?>
<svg
   xmlns:dc="http://purl.org/dc/elements/1.1/"
   xmlns:cc="http://creativecommons.org/ns#"
   xmlns:rdf="http://www.w3.org/1999/02/22-rdf-syntax-ns#"
   xmlns:svg="http://www.w3.org/2000/svg"
   xmlns="http://www.w3.org/2000/svg"
   xmlns:sodipodi="http://sodipodi.sourceforge.net/DTD/sodipodi-0.dtd"
   xmlns:inkscape="http://www.inkscape.org/namespaces/inkscape"
   width="841.90002mm"
   height="595.29999mm"
   viewBox="0 0 841.90002 595.29999"
   version="1.1"
   id="svg2511"
   inkscape:version="1.0.1 (3bc2e813f5, 2020-09-07)"
   sodipodi:docname="acompanhamento.svg">
  <defs
     id="defs2505" />
  <sodipodi:namedview
     id="base"
     pagecolor="#ffffff"
     bordercolor="#666666"
     borderopacity="1.0"
     inkscape:pageopacity="0.0"
     inkscape:pageshadow="2"
     inkscape:zoom="0.0875"
     inkscape:cx="2139.3906"
     inkscape:cy="2080.7965"
     inkscape:document-units="mm"
     inkscape:current-layer="layer1"
     inkscape:document-rotation="0"
     showgrid="false"
     inkscape:window-width="1366"
     inkscape:window-height="738"
     inkscape:window-x="0"
     inkscape:window-y="94"
     inkscape:window-maximized="0" />
  <metadata
     id="metadata2508">
    <rdf:RDF>
      <cc:Work
         rdf:about="">
        <dc:format>image/svg+xml</dc:format>
        <dc:type
           rdf:resource="http://purl.org/dc/dcmitype/StillImage" />
        <dc:title></dc:title>
      </cc:Work>
    </rdf:RDF>
  </metadata>
  <g
     inkscape:label="Layer 1"
     inkscape:groupmode="layer"
     id="layer1">
    <g
       id="g2503"
       transform="matrix(1.8048982,0,0,1.8048982,-202.44601,-688.32191)">
      <path
         d="m 176.344,669.015 c -0.242,0.242 -0.242,0.485 0,0.485 0,0 0.485,0 0.969,0 0.242,0 0.485,0 0.969,0 l 0.969,-0.97 -0.969,0.243 -0.484,0.242 h -0.243 c -0.726,-0.242 -0.968,0 -1.211,0 z"
         fill="#6a4d93"
         id="path732" />
      <path
         d="m 186.76,668.531 c 1.454,-0.727 3.149,-1.939 1.938,-2.424 -1.453,1.212 -1.938,0.97 -3.391,2.181 -1.453,0.485 -2.422,0.243 -2.422,0 -0.485,0.243 -2.18,0.243 -2.907,0.97 1.938,0.242 4.36,-0.243 6.54,-1.212 0.727,0 0.242,0.242 0.242,0.485 z"
         fill="#6a4d93"
         id="path734" />
      <path
         d="m 388.054,597.049 c -0.726,0.243 -0.969,0.485 -0.969,0.485 0.727,-0.242 1.211,-0.485 0.969,-0.485 z"
         fill="#6a4d93"
         id="path736" />
      <path
         d="m 402.104,590.992 c -0.243,0.242 -0.485,0.242 -0.727,0.484 0.242,0 0.484,-0.242 0.727,-0.484 z"
         fill="#6a4d93"
         id="path738" />
      <path
         d="m 301.578,612.315 2.422,0.242 c 0.242,-0.242 -1.211,0 -2.422,-0.242 z"
         fill="#6a4d93"
         id="path740" />
      <path
         d="m 204.443,660.535 c -0.484,0.242 -0.727,0.484 -0.969,0.727 0.242,-0.243 0.727,-0.243 0.969,-0.727 0,0.242 0,0 0,0 z"
         fill="#6a4d93"
         id="path742" />
      <path
         d="m 263.063,610.619 c -0.242,0 -0.484,0 -0.726,0 -0.243,0 -0.485,0.242 -0.485,0.242 0.242,0 0.727,-0.242 1.211,-0.242 z"
         fill="#6a4d93"
         id="path744" />
      <path
         d="m 246.591,628.792 c 0.485,-0.485 0,-1.212 -0.242,-1.454 0,0.485 -0.242,0.969 -0.484,1.454 0.242,0 0.484,0 0.726,0 z"
         fill="#6a4d93"
         id="path746" />
      <path
         d="m 211.71,660.292 -0.727,0.485 c 0,-0.243 0.485,-0.243 0.727,-0.485 z"
         fill="#6a4d93"
         id="path748" />
      <path
         d="m 284.137,613.284 0.242,0.242 c 0,-0.242 0,-0.242 -0.242,-0.242 z"
         fill="#6a4d93"
         id="path750" />
      <path
         d="m 203.474,647.45 c 0,-0.243 -0.242,0 0,0 -0.242,0 -0.242,0 0,0 z"
         fill="#6a4d93"
         id="path752" />
      <path
         d="m 177.071,670.227 0.242,-0.242 c 0,-0.243 0,-0.243 -0.242,-0.485 z"
         fill="#6a4d93"
         id="path754" />
      <path
         d="m 424.631,574.515 c -0.485,0.484 -0.242,0.242 0,0 z"
         fill="#6a4d93"
         id="path756" />
      <path
         d="m 339.608,386.967 c 2.906,0.97 -4.845,0.243 -0.485,1.454 -0.484,-0.484 4.118,-0.727 0.485,-1.454 z"
         fill="#6a4d93"
         id="path758" />
      <path
         d="m 205.17,660.292 c 0.242,-0.242 0.727,-0.242 1.211,-0.484 -0.727,0.242 -0.969,0.484 -1.211,0.484 z"
         fill="#6a4d93"
         id="path760" />
      <path
         d="m 339.124,388.421 0.484,0.243 c -0.242,-0.243 -0.242,-0.243 -0.484,-0.243 z"
         fill="#6a4d93"
         id="path762" />
      <path
         d="m 450.792,515.876 c -0.243,0 -0.243,0.485 -0.485,0.727 0.242,0 0.242,-0.242 0.485,-0.727 z"
         fill="#6a4d93"
         id="path764" />
      <path
         d="m 434.078,560.703 0.727,-0.969 c -0.485,0.242 -0.727,0.727 -0.727,0.969 z"
         fill="#6a4d93"
         id="path766" />
      <path
         d="m 450.065,491.16 c 0,-0.726 0,-0.969 0,-1.696 v 0.243 c 0,0.242 0.243,0.727 0,1.453 z"
         fill="#6a4d93"
         id="path768" />
      <path
         d="m 446.189,465.718 c 0,0.242 0,0.242 0,0.484 0,0.243 0.243,0.485 0.243,0.727 z"
         fill="#6a4d93"
         id="path770" />
      <path
         d="m 196.692,583.965 c 0.484,0.484 0.484,0.727 0.727,1.211 0,-0.727 3.149,1.212 -0.727,-1.211 z"
         fill="#6a4d93"
         id="path772" />
      <path
         d="m 204.686,661.019 c 0,-0.242 0.242,-0.484 0.484,-0.484 -0.242,0 -0.484,0 -0.484,0.484 -0.243,-0.242 -0.243,0 0,0 z"
         fill="#6a4d93"
         id="path774" />
      <path
         d="m 444.736,490.434 -0.242,-3.877 c 0,1.211 0,2.665 0.242,3.877 z"
         fill="#6a4d93"
         id="path776" />
      <path
         d="m 180.946,432.521 -0.484,0.727 c 0.242,-0.242 0.484,-0.484 0.484,-0.727 z"
         fill="#6a4d93"
         id="path778" />
      <path
         d="m 442.556,474.926 c 0,-0.727 0.242,-1.454 0,-2.181 0,-0.242 -0.243,-0.242 -0.243,-0.485 z"
         fill="#6a4d93"
         id="path780" />
      <path
         d="m 219.461,599.715 c 0.243,-0.243 0.243,-0.243 0,0 0.243,-0.243 -0.484,-0.242 -0.726,-0.485 -0.243,0 -0.727,-0.242 -0.969,-0.242 l -0.485,-0.242 c -0.242,0 -0.242,0 -0.242,0 -0.242,0 -0.242,0 -0.484,-0.243 -0.243,0 -0.243,-0.242 -0.485,-0.242 h -0.242 c 0,-0.242 0,0 -0.242,0.242 -0.243,0 -0.485,0.243 -0.727,0.243 -0.727,0.242 -1.453,0.484 -2.18,0.484 h -0.242 c 0,0 0,0 0,0.242 h 0.484 c 0.242,0 0.727,0 0.969,0 0.727,0 1.453,10e-4 1.938,-0.242 h 0.242 l -0.727,-3.634 h 0.243 c 0.242,0 0.484,0 0.484,0 0.242,0.242 -0.727,0.726 0.485,0.726 0.969,0 1.453,0.727 1.453,0.97 -0.242,-0.243 -0.484,-0.97 -0.484,-1.212 -0.485,-0.727 -0.727,-0.969 -1.212,-1.211 -0.484,-0.485 -0.726,-0.727 -0.726,-0.727 0,-0.243 0.484,-0.485 -0.485,-1.212 -1.938,-0.727 -3.149,-0.727 -4.36,-0.727 -1.211,0 -2.422,0 -3.149,-0.484 0,-0.243 -0.242,-0.243 0,-0.485 -0.727,0 -1.211,-0.242 -1.938,-0.485 -0.726,-0.484 -1.695,-1.211 -2.664,-1.938 -1.938,-1.454 -3.876,-2.665 -5.572,-3.392 -0.242,-0.243 -0.242,-0.243 -0.242,-0.485 0.242,0.727 0,1.211 -0.242,1.211 -1.453,-0.969 -2.907,-1.211 -3.149,-2.18 0.969,0.484 1.211,0.484 1.696,0.484 l -1.696,-0.727 c -0.969,-1.696 2.18,0.97 2.664,0.485 -3.149,-1.696 -7.266,-3.15 -9.204,-4.846 0,-0.969 5.329,2.908 2.664,0.484 l 3.391,2.424 c -2.18,-2.908 2.181,1.453 0.243,-1.212 -2.423,-1.696 -3.634,-2.181 -4.845,-2.908 -1.211,-0.727 -2.422,-1.454 -4.36,-3.15 -1.211,-0.484 -0.242,0.727 -1.453,0.243 -3.149,-2.181 -3.634,-3.877 -4.118,-5.089 -0.485,-1.211 -0.727,-2.181 -2.907,-4.119 -1.454,-0.727 -2.422,-0.485 -4.603,-4.119 l 1.696,0.484 c -3.149,-4.361 -2.907,-1.696 -5.813,-6.542 0.968,0.484 2.664,3.15 2.422,2.423 -1.454,-3.392 -1.938,-1.696 -3.634,-3.877 l 0.243,-0.969 c -3.392,-4.362 -7.51,-9.208 -10.659,-14.539 0.485,0.243 1.212,0.969 0.727,-0.484 -1.938,-3.15 -3.633,-7.027 -4.602,-10.904 -0.969,-3.877 -1.454,-7.754 -1.696,-11.631 -0.242,-0.969 -0.727,-1.696 -0.969,-2.666 0,-0.726 0.242,-1.211 0.485,-0.484 0,-2.908 -0.485,0 -0.727,-1.454 -0.242,-1.696 0.242,-2.181 0.484,-1.212 -0.484,-2.423 -0.726,-6.057 -0.726,-9.934 0,-3.635 0.726,-7.512 1.453,-9.935 v 0.969 c 0.969,-4.119 -0.484,-4.846 0.969,-8.723 v 0.727 c 1.211,-4.361 2.665,-8.965 4.118,-13.327 1.696,-4.119 3.633,-7.996 5.571,-10.904 -0.242,-1.696 4.845,-7.754 3.876,-8.965 1.696,-1.939 2.422,-2.423 3.391,-3.393 0.969,-0.969 1.938,-1.696 4.36,-5.33 0.485,-0.727 0,-0.243 0.485,-0.727 0.242,-0.243 0.242,-0.727 0.484,-1.212 0.243,-0.727 0.727,-1.696 1.454,-2.665 l 0.484,0.484 1.696,-2.907 1.938,-0.727 c 0.484,-0.485 0.969,-1.212 1.453,-1.696 -0.727,0.484 -1.696,1.211 -1.696,0.969 2.18,-2.908 6.541,-5.573 7.025,-5.331 1.938,-1.938 4.118,-3.877 6.298,-5.573 0,0.242 -0.969,1.211 -1.938,2.181 3.149,-3.393 1.211,0.242 4.118,-2.908 -0.484,0.242 0,-0.485 0,-0.727 1.938,-0.727 5.814,-3.392 8.72,-5.331 l -0.242,0.727 c 5.329,-3.15 11.385,-7.269 17.441,-10.904 -2.422,0.97 -2.18,0 -0.485,-1.211 l 1.212,0.242 c 0.968,-0.969 -1.938,0.727 0,-0.969 2.422,-1.212 1.937,0 0.726,0.969 l 2.665,-1.696 c 0.242,0.242 -0.242,0.484 -0.485,0.969 0.969,-0.969 5.329,-1.696 6.541,-3.15 l 0.242,0.242 c 0.726,-0.242 1.453,-0.727 2.18,-0.969 0.727,-0.242 1.211,-0.484 1.938,-0.727 1.211,-0.484 2.422,-0.969 3.633,-1.454 2.18,-0.727 4.118,-1.453 6.783,-1.938 0,-0.727 2.18,-0.969 3.633,-1.939 2.18,-0.242 4.36,-0.484 6.783,-0.484 2.422,-0.242 4.844,-0.242 7.267,-0.727 3.633,-0.727 0.968,-0.727 2.664,-1.212 0.242,0.485 5.329,0 2.907,0.727 3.149,-0.242 5.087,-0.484 7.267,-0.727 2.18,-0.242 4.602,-0.484 8.478,-0.969 -0.969,-0.242 -1.938,-0.242 -1.454,-0.485 1.454,-0.242 3.149,0.243 3.149,0.485 h -0.484 c 8.72,-1.454 20.105,1.212 27.13,0.242 h -0.485 c 2.423,-0.242 4.845,-0.242 7.267,-0.484 3.392,0.242 -1.938,0.484 0.485,0.969 3.875,-0.485 7.024,-0.242 9.931,0.242 2.907,0.243 5.572,0.485 8.721,0.485 4.602,2.423 17.44,1.938 23.738,4.846 l -0.242,-0.484 c 1.696,0 1.938,0.726 3.149,0.969 0,-0.485 -1.696,-0.727 -0.727,-0.727 3.634,0.484 7.025,1.696 10.658,2.908 1.696,0.484 3.392,1.453 5.087,2.18 1.696,0.727 3.391,1.454 5.087,2.423 6.54,3.635 12.838,7.754 18.894,12.116 2.18,1.696 3.149,1.454 4.118,1.938 0.969,0.243 2.18,0.727 4.36,3.15 l -1.938,-0.727 c 9.205,6.058 15.745,15.508 21.801,23.989 -0.484,-0.485 -0.727,-0.242 -1.211,-1.212 0.727,2.181 4.118,7.27 4.36,7.027 0.727,1.454 -0.242,0.485 0,1.454 0.727,2.181 2.907,4.846 2.907,6.058 0,0.242 -0.485,-0.485 -0.485,-0.969 0.969,1.211 2.18,6.3 2.423,4.846 0.969,3.877 2.422,7.269 2.422,10.419 1.211,1.939 0.727,7.027 1.938,7.512 -1.211,0 0.242,7.027 0.727,9.692 -0.485,-0.727 -0.243,2.181 -0.727,1.212 0.242,2.907 0.484,5.573 1.211,5.088 -0.969,5.331 1.211,10.904 -0.727,13.812 0,8.481 -0.969,16.477 -2.906,23.988 -0.727,-0.484 2.18,-8.238 0.726,-8.238 -1.211,7.269 -1.453,11.631 -4.602,18.173 -0.969,1.696 0,-1.211 0,-1.938 -0.485,1.696 -1.211,3.392 -1.938,5.088 -0.727,1.696 -1.453,3.15 -2.422,4.604 -1.696,2.908 -3.392,5.815 -5.087,8.723 0,0 0.242,-0.727 0.484,-1.211 -0.726,0.969 -1.937,2.423 -1.453,2.423 l 0.727,-1.212 c 1.937,-1.211 -1.696,5.089 -1.696,5.331 0.242,-2.665 -4.36,4.846 -3.633,0.969 -0.485,0.727 -0.969,1.696 -0.727,1.696 -0.969,0.97 -1.211,0.97 -0.727,-0.242 -2.907,3.635 -1.453,2.665 -4.36,5.573 -0.242,-0.242 0.484,-0.727 0.484,-1.454 -1.211,1.696 -2.422,3.635 -5.329,5.816 0,-0.243 -0.484,-0.243 0.485,-0.727 -4.603,3.877 -7.509,7.511 -13.565,10.419 1.211,-1.938 -2.18,0.727 -2.907,0.242 l -3.149,1.939 1.454,-0.242 c -2.665,1.453 -5.087,3.15 -7.752,4.119 0.727,-0.485 1.454,-0.727 1.938,-1.212 -1.696,0.97 -3.633,1.696 -5.329,2.423 0.969,-0.242 2.18,-0.727 3.149,-0.969 -2.665,1.696 0.727,0.969 -3.149,2.181 0.727,-0.485 -2.907,1.211 -4.845,1.211 -1.453,0.727 -2.906,1.454 -5.087,1.939 -0.726,0 0.243,-1.212 -0.242,-1.212 -1.211,1.212 -7.267,1.939 -8.962,3.15 0.484,-0.242 0.484,-0.726 0.242,-0.969 l -1.211,0.969 c -1.454,0.243 -1.696,0 -1.454,-0.242 -4.36,0.969 1.696,0.727 -3.633,1.454 0.484,-0.242 0.242,-0.242 0.969,-0.485 -5.329,0.97 -10.174,1.697 -15.018,2.666 -1.696,-0.485 4.36,-1.212 2.422,-1.454 -1.696,0.485 -3.634,0.969 -5.329,1.454 -1.696,0.727 -3.391,1.211 -5.087,1.696 -3.391,0.969 -6.783,1.938 -10.174,2.181 h 1.211 c -0.726,1.454 -5.086,0 -8.478,0.969 0.727,-0.242 0.969,-0.727 0.727,-0.727 -4.602,0.242 -9.447,0.727 -16.472,1.212 l 0.969,-0.243 c -2.664,-0.242 -7.267,-0.242 -10.173,-0.242 -0.969,0.242 -2.665,0.242 -1.454,0.727 -4.602,-0.969 -8.962,-0.485 -13.08,-0.485 -4.118,-0.242 -8.236,0 -12.112,-1.696 0.969,0.242 2.18,0.242 1.454,0 -2.181,-0.242 -4.603,-0.727 -7.025,-0.969 0.484,0.727 0.969,0.484 2.18,0.969 -0.969,0.242 -2.907,0.242 -4.603,0.242 3.149,-0.242 0,-0.969 -1.211,-1.211 0.243,0.242 -0.242,0.242 -0.242,0.484 -0.484,0 -0.727,-0.242 -0.969,-0.242 -0.242,0 -0.484,0 -0.726,0 -0.485,0 -0.485,0 -0.727,0.242 -0.242,0.243 -0.242,0.485 -1.454,0.485 -0.242,0.485 -0.484,0.969 -0.968,1.696 l -0.243,-0.484 c -0.484,0.969 -0.726,1.938 -0.969,2.665 -0.242,0.969 -0.726,1.696 -1.211,2.665 -0.969,0.485 0.485,-1.938 0.242,-2.18 -1.211,2.423 -1.453,5.573 -3.149,7.269 0.485,-1.212 1.212,-2.665 1.696,-3.635 -1.938,2.181 -1.938,2.423 -3.149,4.12 v -0.243 c -0.969,1.212 -1.696,2.666 -2.665,3.877 l 0.727,-0.969 c -0.484,3.877 -3.633,6.058 -5.329,10.662 1.696,-4.362 0,-0.97 -0.484,-1.697 -0.969,0.97 -2.18,2.181 -1.938,1.697 -0.727,2.18 -2.665,2.665 -3.876,5.573 -0.242,0 -1.453,1.696 -1.696,0.969 -1.695,2.181 0.727,-0.242 0.727,0.242 -2.422,3.877 -7.751,6.785 -12.111,11.389 -0.969,0.969 -1.938,1.696 -2.665,2.18 -0.727,0.727 -1.211,1.212 -1.938,1.697 -1.211,1.211 -2.422,2.18 -4.602,3.392 -1.696,0.485 0.727,-1.454 0.727,-1.454 -2.665,0.969 -4.361,1.939 -6.783,3.392 0.485,-0.484 -0.242,-0.242 -0.969,-0.242 -1.938,0.969 -0.969,1.454 -3.633,1.939 0.242,-0.485 0.726,-0.97 1.695,-1.697 -2.18,1.212 -4.36,2.424 -6.782,3.393 -0.727,-0.243 1.211,-1.212 1.938,-1.696 -2.665,1.211 -7.025,2.665 -7.752,3.392 l 1.938,-0.242 c -0.969,0.242 -0.727,-0.485 0,-0.727 2.18,-1.212 3.391,-0.727 3.634,-0.727 -0.485,0.242 -1.212,0.484 -1.696,0.727 2.18,0.727 7.025,-2.666 10.174,-3.877 l -0.969,1.454 3.149,-2.181 c 0.726,0 1.695,0.242 0,0.969 2.664,-0.727 1.938,-1.454 4.36,-1.938 0.242,0 0.242,0 0,0.242 0.727,-0.485 1.453,-0.969 2.18,-1.454 -0.242,0.485 0.727,0.485 -0.727,0.969 2.18,-0.969 3.876,-1.938 5.087,-2.907 1.211,-0.97 2.18,-1.697 3.149,-1.939 l -0.242,0.242 c 5.087,-4.119 0.242,-0.969 3.391,-4.603 1.211,-0.243 2.422,-0.485 3.634,-0.727 v -0.97 c 0.484,-0.484 1.453,-1.211 1.453,-0.969 1.453,-2.181 -0.484,0 0.242,-1.211 2.907,-1.697 5.814,-6.543 7.267,-6.543 0.242,-1.211 -2.422,2.181 -0.484,-0.727 1.695,0 2.422,-3.15 4.602,-5.33 0,1.211 -1.938,3.15 0.242,1.211 0.243,-2.181 3.634,-4.604 4.845,-6.785 -0.727,-0.484 2.664,-4.846 4.36,-8.48 0,0.242 1.211,-1.454 2.422,-3.635 0.727,-0.969 1.212,-2.181 1.938,-3.392 0.243,-0.485 0.485,-1.212 0.969,-1.697 0.242,-0.242 0.242,-0.484 0.485,-0.726 v 0.242 c -0.243,-0.242 -0.243,-0.727 0,-0.969 0.484,-0.243 1.211,-0.243 2.18,-0.243 1.211,0 2.422,0 3.391,0 -0.242,0.485 -0.727,0.727 -2.18,0.97 h 2.664 c 0.727,-0.243 1.454,-0.243 3.149,0 l -0.726,0.484 c 1.695,0.242 3.633,0.485 5.571,0.727 1.938,0.242 4.118,0.242 6.54,0.727 0.242,-0.485 -3.633,-1.938 1.454,-1.938 0.242,0.242 0.242,0.969 -0.969,0.969 0.484,0 1.453,-0.243 2.422,0 l -1.938,0.484 c 2.18,0.485 1.211,-0.484 2.907,-0.242 0,0.485 1.211,0.485 0.969,0.727 -0.485,0 -1.453,-0.242 -2.18,-0.242 1.938,0.242 4.36,0.484 5.087,0.969 -0.243,-0.242 0,-0.727 1.453,-0.727 3.634,0 1.211,0.485 3.391,0.727 0.969,-0.242 3.149,0 3.392,-0.727 0.968,0 1.211,0.242 1.695,0.485 1.938,-0.243 8.72,0 6.54,-0.97 h -0.484 0.242 c 6.056,-0.727 12.838,0.485 18.894,-0.242 v 0.242 c 3.634,-0.484 8.236,-0.969 10.658,-1.938 0.969,-0.242 2.665,0 2.18,0.485 2.665,-0.727 2.907,-0.97 7.025,-1.454 -2.664,0.969 0.969,0.242 -2.664,0.969 3.633,-0.727 4.602,-0.485 8.235,-2.181 -0.969,0.969 2.665,0 4.361,-0.242 -0.727,0 -1.696,0 -2.423,0 1.696,-0.485 3.391,-0.727 5.087,-0.969 l -0.727,0.969 c 3.634,0 7.025,-0.727 10.174,-1.939 2.907,-0.969 5.814,-1.938 8.72,-1.696 1.696,-0.969 -4.118,0.485 -2.422,-0.484 3.391,-0.727 7.267,-0.485 8.236,-0.727 4.602,-0.97 3.876,-2.423 8.72,-3.877 -0.726,0 -1.453,-0.485 1.938,-2.181 3.149,-1.212 4.36,-0.485 2.422,0.485 -0.726,0.242 -1.211,0.484 -1.211,0.242 -0.969,0.484 -2.422,1.211 -0.969,0.969 l 0.243,-0.485 c 1.695,-0.242 6.055,-2.423 5.329,-1.453 2.18,-1.454 0.726,-0.97 -0.969,-0.243 4.36,-1.454 6.298,-2.907 10.416,-5.088 -0.727,0.242 -1.454,0.242 -0.727,0 6.056,-3.15 2.18,-1.939 6.056,-4.604 2.422,-1.212 -0.243,1.454 3.391,-1.454 2.422,-1.454 0.969,0.242 0.242,1.212 3.149,-2.908 6.54,-4.604 8.478,-6.058 l -1.453,1.696 c 0.969,-0.969 1.695,-1.696 2.664,-2.423 l -1.453,0.485 c 0.969,-0.727 1.938,-1.454 1.938,-1.454 0.727,-1.212 -1.454,0 0.242,-2.181 1.453,-0.969 3.634,-3.877 4.36,-3.877 -3.875,3.877 0.969,0.242 -2.18,3.392 0.485,-0.727 1.454,-1.454 2.422,-2.423 0.243,0 0,0.243 -0.242,0.485 4.118,-3.392 0.969,-2.423 4.603,-6.542 0,0.726 1.453,-0.485 1.937,-1.212 -1.453,1.696 -1.211,0.485 -0.242,-1.454 2.423,-2.665 1.938,-3.15 3.149,-4.604 l -1.211,1.696 c 0,-0.727 0.969,-2.18 2.18,-4.361 0.485,0 -0.969,1.938 -0.484,1.211 0.726,-2.665 3.875,-4.603 5.087,-8.238 0.968,-1.454 0.726,0.242 1.695,-0.969 0.727,-1.939 1.211,-2.908 1.938,-4.12 0.484,-0.969 1.211,-2.18 1.696,-4.361 -0.969,0.969 -0.969,1.211 -0.243,-1.939 -0.726,2.181 -1.453,4.604 -2.422,6.785 0.485,-1.454 0.727,-3.15 0.969,-4.604 -0.484,0.969 -0.727,2.181 -0.969,3.15 -0.242,0.969 -0.727,1.939 -0.969,2.423 0.485,-2.181 0.485,-1.938 -0.242,-1.211 0.969,-1.212 1.453,-2.666 1.938,-4.12 0.484,-1.453 0.969,-2.907 1.695,-4.603 l 1.212,0.484 c 0.968,-2.423 1.695,-4.604 1.937,-7.269 0.243,-1.212 0.485,-2.423 0.727,-3.877 0.242,-1.454 0.485,-2.908 0.969,-4.604 l -0.727,2.181 c -0.484,-0.969 0.727,-4.119 0.727,-6.3 0.485,0.242 0.727,-0.969 1.211,-1.939 -0.242,0 0.485,-4.846 -0.484,-5.573 0.242,-0.969 0.484,-1.938 0.726,-2.907 0.243,-2.666 0,-4.362 -0.484,-5.816 -0.242,-1.454 -0.727,-2.908 -0.727,-5.573 0.485,1.454 0.727,-0.727 1.211,2.665 0,-1.696 0,-3.392 -0.242,-3.392 0.242,-0.969 -0.969,-4.846 -0.727,-6.3 -0.242,-0.727 -0.726,-0.969 -0.968,-2.908 0,-0.242 0.242,0 0.242,0 -0.242,0 -0.727,-2.907 -0.969,-1.211 0.969,-5.573 -2.18,-14.539 -2.18,-19.385 -0.969,-3.635 -2.665,-7.996 -4.118,-11.146 0.242,0.242 0.242,0 0.484,0.484 -0.726,-2.18 -1.211,-2.907 -1.938,-3.392 -0.726,-0.484 -1.211,-1.211 -2.18,-3.877 -0.484,-2.908 1.696,2.423 1.212,0.727 1.211,-1.454 -3.149,-5.815 -4.361,-9.208 l 0.485,0.727 c -0.969,-2.665 -4.118,-5.33 -7.025,-8.965 0,0 0.242,0 0.242,-0.242 -2.422,-1.939 -6.54,-6.058 -9.931,-8.966 1.453,0.485 1.696,1.212 1.453,0 -1.453,-1.211 -0.242,0.969 -3.149,-1.454 -0.726,-1.211 -2.664,-3.15 -2.422,-3.877 0.969,0.727 1.938,1.454 2.907,2.423 -0.727,-1.938 -3.634,-3.15 -5.087,-4.361 l 0.484,-0.242 c -4.602,-3.393 -5.329,-2.666 -10.173,-6.058 l 0.484,0.484 c -3.149,-0.969 -1.938,-1.938 -5.087,-3.15 l -0.242,-1.453 c -1.938,-0.97 -7.025,-2.908 -10.658,-4.604 2.422,0.242 6.54,2.18 9.205,3.15 -1.938,-1.212 -6.541,-3.393 -7.752,-3.635 0.727,0.242 1.938,0.727 2.665,1.212 -1.454,-0.243 -2.907,-0.727 -4.603,-1.212 -1.695,-0.485 -3.633,-1.211 -5.571,-1.938 0.242,-0.243 0,-0.727 -0.969,-1.454 -0.969,-0.485 -2.422,-1.212 -3.875,-1.696 -3.149,-0.97 -6.783,-2.181 -7.994,-3.15 -7.509,-1.212 -14.776,-3.635 -23.739,-4.362 2.907,1.696 -2.664,-0.242 -2.18,1.212 -1.938,-0.243 -2.907,-0.243 -2.907,-0.485 -1.937,-0.485 -4.117,-0.969 -6.055,-1.454 -1.454,-0.485 1.938,-0.242 1.938,-0.485 -4.603,-0.484 -1.938,-0.726 -4.845,-1.453 0.484,0.484 -1.696,0.727 -4.118,0.242 l 3.633,0.969 c -6.298,0.242 -5.329,-1.454 -11.869,-0.969 l 1.938,-0.485 c -3.391,0 -12.112,-0.242 -15.261,0.97 -0.484,-0.243 -1.453,-0.485 0,-0.727 -3.875,0 -8.235,0.242 -12.353,0.727 -4.118,0.484 -7.994,0.726 -10.901,0.484 l 0.485,-0.484 c -1.454,0.242 -2.423,0.969 -4.36,0.726 0,-0.242 0.484,-0.484 0,-0.484 -0.727,0.242 -3.876,0.969 -5.814,0.727 l 1.696,-0.485 c -7.509,0.242 -11.627,1.939 -17.683,3.15 -0.242,-1.211 -6.056,-0.484 -9.205,0 v -0.242 c -2.18,0.484 -4.36,0.727 -6.298,1.454 -1.938,0.727 -3.876,1.211 -5.571,2.18 l -2.423,1.212 c -0.968,0.485 -1.695,0.969 -2.664,1.212 -1.696,0.969 -3.391,1.938 -5.329,2.907 -2.665,0.485 -6.54,2.423 -10.658,4.846 -4.118,2.424 -8.236,5.089 -12.112,6.785 1.211,-0.484 0.242,0.727 -0.969,1.696 -1.695,0.727 -4.118,3.393 -4.36,2.423 l 0.484,-0.242 c -1.695,0 -4.844,2.423 -7.509,4.119 l 0.243,1.454 c -3.876,1.696 -7.994,5.089 -11.385,8.481 -3.392,3.635 -6.056,7.027 -8.236,8.239 -0.485,0.969 -1.211,1.696 -1.938,2.665 -0.484,0.969 -0.727,1.211 -0.969,1.696 -0.242,0.485 -0.484,0.969 -0.484,1.212 l -0.485,-0.485 c -1.453,1.939 -2.664,3.392 -4.118,5.331 -1.453,1.938 -2.422,3.877 -4.118,7.027 l 0.243,-1.454 c -1.938,3.392 -0.485,5.088 -2.181,8.238 l -1.453,0.485 c -2.907,6.058 -6.056,12.115 -7.025,18.658 0,-0.242 -0.242,-0.485 0,-1.454 -0.484,1.454 -1.453,4.362 -1.937,6.785 -0.485,2.423 -0.727,4.361 0,3.877 -0.969,0 -1.454,6.784 -1.212,10.419 l -0.726,-0.727 c 0.484,3.15 0.726,3.15 0.969,7.512 0,0.969 -0.485,0.969 -0.485,-0.485 -0.484,3.392 0.485,2.665 0.485,6.542 l -0.485,-1.454 c 0,3.393 0.485,3.15 0.969,5.089 0.485,2.181 0.727,6.542 0.242,7.027 0.485,0.484 1.211,2.181 1.696,4.119 -0.242,0.242 -0.485,-0.242 -0.727,-0.727 0.969,5.816 3.149,7.996 4.118,11.873 -0.242,0.243 -0.242,0.485 0,0.727 -1.938,-4.119 -3.149,-7.754 -2.907,-7.511 -0.726,0.242 0.485,3.877 -1.211,1.211 1.454,2.908 4.36,7.027 6.056,10.42 0,0.242 0,0.242 0,0.484 l -0.242,-0.242 c 0.242,0.727 0.726,1.454 1.211,1.938 0.484,0.97 0.727,1.696 1.453,2.666 -0.242,0.727 2.18,3.634 3.149,5.088 0.485,-0.484 1.696,1.454 0.969,-0.727 0.242,0.243 -0.242,-0.242 -0.969,-1.211 -0.242,-0.243 -0.484,-0.485 -0.484,-0.485 -0.727,-0.969 -1.696,-2.181 -2.422,-3.877 0.968,0.969 2.18,2.181 2.906,4.119 0.969,0.485 1.938,1.212 2.423,1.454 0.726,2.666 3.149,6.785 2.906,7.512 3.634,4.119 7.994,10.177 11.385,12.115 1.211,1.212 0.969,1.696 1.211,2.181 -0.726,-0.485 -1.453,-1.454 -1.937,-1.696 1.211,1.211 2.664,2.908 4.36,4.361 1.453,1.454 2.906,2.424 3.633,2.424 2.907,2.907 -2.422,-0.727 2.18,2.665 l -0.726,-0.242 c 1.937,1.938 4.36,3.392 6.298,4.361 1.937,0.969 3.875,1.939 6.055,2.908 1.938,0.969 3.876,2.181 5.814,3.392 0.969,0.727 1.938,1.454 3.149,2.423 1.211,0.97 2.664,1.454 4.118,1.939 -0.727,-0.242 -1.211,-0.485 -1.211,-0.727 1.695,0.485 3.391,0.969 4.844,1.454 0.727,0.242 1.454,0.484 1.938,0.969 0.242,0.242 0.242,0.242 0.485,0.485 0,0 0,0.484 0.242,0.727 0.242,0.484 0.726,1.211 1.211,1.453 l 0.242,0.243 h 0.242 c -0.242,0 0.485,0 0.969,-0.485 0.485,-0.485 0.243,-1.211 0.243,-0.969 v -0.242 c 0,-0.243 0,-0.485 -0.243,-0.97 0,0 0,-0.242 -0.242,-0.484 0,0 -0.242,-0.243 -0.484,-0.485 -0.485,-0.485 -1.212,-0.485 -1.696,-0.242 -0.242,0.242 -0.484,0.484 -0.727,0.484 v 0.243 c 0,0.242 0,0.242 0,0.242 0,0.242 0,0.485 -0.242,0.727 -0.242,0.969 -0.242,1.696 -0.242,2.665 l -0.485,5.089 c -0.969,6.784 -2.18,13.569 -4.844,19.627 -1.454,3.392 -0.969,3.877 -1.454,6.3 l -0.969,0.485 c -0.242,1.211 -0.484,2.665 -0.968,3.876 -1.938,5.331 -6.298,7.27 -9.447,13.57 l 0.968,-0.485 c -1.453,1.939 -4.844,6.3 -5.086,5.573 0,0.243 -0.243,0.97 -0.969,1.454 l -0.243,-0.242 c -1.211,1.696 -2.422,3.392 -3.875,4.846 -3.634,3.15 -0.485,-1.454 -5.572,3.15 -1.695,1.938 -4.844,5.573 -4.117,5.088 0.726,-0.484 2.18,-1.453 2.422,-1.211 l -1.696,1.696 c 0.242,1.212 -0.484,3.392 4.845,0 0.969,-0.969 1.938,-2.181 2.664,-3.392 l 1.454,-0.485 -2.665,2.423 c 1.938,-0.969 2.423,-2.181 3.391,-3.392 0.485,0 0.969,-0.242 1.696,-0.727 0.727,-1.212 1.453,-2.423 2.18,-3.635 0.727,0 -0.727,1.939 1.454,0 0.968,-1.696 -1.938,0.727 0,-1.938 1.695,-1.212 1.695,-0.485 2.906,-2.423 0.485,0 0.243,0.484 -0.242,1.211 1.211,-1.696 3.391,-4.361 3.634,-5.573 1.937,-1.211 4.117,-5.815 4.844,-5.088 0.242,-0.727 1.454,-3.635 2.18,-5.331 -0.242,1.938 0.485,0.242 1.696,-1.454 0.969,-1.938 2.18,-4.119 2.664,-3.392 0.243,-2.908 3.392,-8.966 3.876,-13.812 0,0.242 0,0.727 0,1.212 0.727,-2.423 1.211,-3.15 1.938,-4.604 -0.727,-0.485 -0.242,-4.604 -0.242,-6.785 1.453,-2.908 0.726,2.181 1.695,1.212 -0.726,0 0.243,-5.573 -0.484,-4.604 0.969,-2.181 0.484,-1.939 1.453,-3.15 -1.211,-0.485 0,-2.181 -0.242,-4.362 0.484,-1.696 0.727,-1.938 0.969,-1.938 0,0 0.242,-0.243 0.242,-0.485 0,-0.242 0,-0.242 0,-0.484 h -0.242 c -0.242,0 -0.485,-0.243 -0.727,-0.243 -0.726,-0.242 -0.726,-0.242 -1.211,-0.242 -0.242,0 -0.242,-0.242 -0.484,-0.242 -0.243,-0.243 -0.243,0 -0.243,-0.243 0,-0.242 0,0 -0.242,0.243 -0.242,0 -0.727,0.242 -1.211,0.484 l -0.727,0.243 h -0.484 -0.242 c 0,0.484 -0.243,0.242 -0.485,0 -0.242,0 0.485,0 0.727,-0.243 0.484,0 0.727,-0.242 1.211,-0.242 0.727,-0.242 1.211,-0.485 1.453,-0.727 0,0 0,0 0.243,0.242 0.242,0.243 0.484,0.243 0.726,0.243 h 0.243 l 0.484,0.242 0.727,0.242 c 0.242,3.877 0.969,4.119 0.726,4.362 0,-0.243 0,0 0,0 z m -63.706,-59.851 c 0.484,0.727 0.726,1.212 0.969,1.454 -0.243,-0.242 -0.485,-0.727 -0.969,-1.454 z m -3.149,-6.542 c 0.242,0.727 0.726,1.939 1.211,2.908 0,0.242 -0.485,0.242 -0.727,-0.485 0.485,0.243 -0.242,-1.454 -0.484,-2.423 z m 3.633,16.235 c -0.727,-0.969 -0.969,-1.454 -0.727,-1.696 0.243,0.484 0.727,0.969 1.212,1.696 0,0 0,0 0.242,0 -0.485,0.242 -0.485,0 -0.727,0 z"
         fill="#6a4d93"
         id="path782" />
      <path
         d="m 158.177,550.768 c 0,0.243 0.242,0.243 0.242,0.485 0,-0.242 -0.242,-0.485 -0.242,-0.727 -0.242,0 -0.242,-0.242 -0.485,-0.242 0.243,0.242 0.243,0.484 0.485,0.484 z"
         fill="#6a4d93"
         id="path784" />
      <path
         d="m 175.617,438.579 -0.242,0.485 z"
         fill="#6a4d93"
         id="path786" />
      <path
         d="m 259.188,607.469 c 0,0 -0.243,-0.242 -0.485,-0.242 0,0 0.242,0 0.485,0.242 z"
         fill="#6a4d93"
         id="path788" />
      <path
         d="m 247.803,620.554 -1.454,1.938 c 0.727,-0.727 1.211,-1.454 1.454,-1.938 z"
         fill="#6a4d93"
         id="path790" />
      <path
         d="m 429.717,558.765 c 0,-0.243 0.243,-0.243 0.243,-0.485 0.484,-0.969 0.242,-0.242 -0.243,0.485 z"
         fill="#6a4d93"
         id="path792" />
      <path
         d="m 379.818,597.534 c 0.727,-0.242 1.212,-0.727 1.938,-0.969 -1.211,0.242 -1.938,0.485 -1.938,0.969 z"
         fill="#6a4d93"
         id="path794" />
      <path
         d="m 384.42,595.596 c -1.211,0.242 -1.937,0.727 -2.906,0.969 0.969,-0.242 2.18,-0.727 2.906,-0.969 z"
         fill="#6a4d93"
         id="path796" />
      <path
         d="m 193.058,664.654 -0.726,0.242 c 0,0 0,0 0,0.242 z"
         fill="#6a4d93"
         id="path798" />
      <path
         d="m 192.332,664.896 -0.727,0.242 c 0.484,0 0.727,0 0.727,-0.242 z"
         fill="#6a4d93"
         id="path800" />
      <path
         d="m 190.394,665.865 1.453,-0.484 c -0.727,0 -1.211,0.242 -1.453,0.484 z"
         fill="#6a4d93"
         id="path802" />
      <path
         d="m 214.617,655.688 c -1.211,0.485 -3.149,1.212 -4.602,1.939 v 0.242 c 0.484,-0.484 3.633,-1.211 4.602,-2.181 z"
         fill="#6a4d93"
         id="path804" />
      <path
         d="m 234.48,643.573 c -1.212,1.211 -2.18,2.181 -3.392,3.15 0.727,-0.485 1.696,-0.969 0.243,0.727 4.844,-3.635 -1.212,0.727 3.149,-3.877 z"
         fill="#6a4d93"
         id="path806" />
      <path
         d="m 243.685,632.426 c -1.454,2.181 0.242,0.243 0.484,0.485 0.727,-1.696 0.727,-1.939 -0.484,-0.485 z"
         fill="#6a4d93"
         id="path808" />
      <path
         d="m 333.31,610.861 -0.243,0.727 c 2.18,-0.484 0.243,-0.484 0.243,-0.727 z"
         fill="#6a4d93"
         id="path810" />
      <path
         d="m 352.204,603.349 -1.938,-0.242 -0.726,0.727 z"
         fill="#6a4d93"
         id="path812" />
      <path
         d="m 364.8,605.53 -0.969,0.242 3.149,-0.969 z"
         fill="#6a4d93"
         id="path814" />
      <path
         d="m 447.885,470.08 -0.727,0.727 c 0.485,1.211 1.211,1.453 0.727,-0.727 z"
         fill="#6a4d93"
         id="path816" />
      <path
         d="m 403.557,409.017 c -0.485,-0.727 -2.18,-2.18 -3.391,-2.423 1.453,0.969 2.664,2.181 3.391,2.423 z"
         fill="#6a4d93"
         id="path818" />
      <path
         d="m 186.276,420.406 0.969,-0.969 -2.181,1.938 z"
         fill="#6a4d93"
         id="path820" />
      <path
         d="m 408.401,412.41 c -0.484,0 -0.242,0.727 0.727,0.727 l 0.727,-0.727 z"
         fill="#6a4d93"
         id="path822" />
      <path
         d="m 414.457,414.591 c 1.211,-0.485 2.422,-1.212 1.695,-1.939 -1.211,0.727 -1.211,0.485 -2.422,1.454 -0.969,0 -1.453,-0.484 -1.453,-0.727 -0.243,0.243 -1.454,-0.484 -1.938,0 0.969,0.727 2.664,1.212 4.36,0.727 0,0.242 -0.242,0.485 -0.242,0.485 z"
         fill="#6a4d93"
         id="path824" />
      <path
         d="m 500.691,444.395 -0.484,-0.485 c 0.242,0.242 0.484,0.242 0.484,0.485 z"
         fill="#6a4d93"
         id="path826" />
      <path
         d="m 535.331,488.979 c -0.243,-0.484 -0.243,-0.484 -0.485,-0.484 0.485,0.242 0.485,0.484 0.485,0.484 z"
         fill="#6a4d93"
         id="path828" />
      <path
         d="m 537.995,498.187 c 0,-0.243 0,-0.485 0,-0.485 -0.243,0.242 -0.243,0.485 0,0.485 z"
         fill="#6a4d93"
         id="path830" />
      <path
         d="m 500.691,444.395 0.969,1.211 c 0.485,-0.242 -0.484,-0.727 -0.969,-1.211 z"
         fill="#6a4d93"
         id="path832" />
      <path
         d="m 427.295,413.379 c -0.242,0 -0.727,0 -0.969,0.242 l 0.969,-0.242 c 0,0.242 0,0 0,0 z"
         fill="#6a4d93"
         id="path834" />
      <path
         d="m 479.133,431.794 -0.485,-0.242 c -0.242,0 -0.242,0 -0.484,0.242 z"
         fill="#6a4d93"
         id="path836" />
      <path
         d="m 460.966,425.737 c 0.484,0.242 0.726,-0.485 0.969,-0.727 -0.243,0.242 -0.727,0.242 -0.969,0.242 0,0 0,0.242 0,0.485 z"
         fill="#6a4d93"
         id="path838" />
      <path
         d="m 491.002,438.337 v 0.242 c 0.243,0 0.243,0 0,-0.242 z"
         fill="#6a4d93"
         id="path840" />
      <path
         d="m 312.72,632.426 c 0,0 0,-0.242 0,0 -0.242,-0.242 -0.242,-0.242 0,0 z"
         fill="#6a4d93"
         id="path842" />
      <path
         d="m 297.218,615.222 0.242,0.242 0.242,-0.242 z"
         fill="#6a4d93"
         id="path844" />
      <path
         d="m 540.902,515.633 c 0,-0.242 0,-0.242 0,0 -0.242,-0.727 -0.242,-0.485 0,0 z"
         fill="#6a4d93"
         id="path846" />
      <path
         d="m 473.319,646.238 c 0.243,-1.938 1.211,2.908 1.454,0 -0.243,0.485 -1.454,-2.423 -1.454,0 z"
         fill="#6a4d93"
         id="path848" />
      <path
         d="m 538.721,555.614 c 0.242,0 0.242,-0.242 0.485,-0.242 0,0 -0.243,0 -0.485,0.242 z"
         fill="#6a4d93"
         id="path850" />
      <path
         d="m 535.088,570.88 c -0.242,0.242 -0.242,0.484 -0.484,0.969 0,0 0,0 0.242,-0.242 -0.242,0 0,-0.242 0.242,-0.727 z"
         fill="#6a4d93"
         id="path852" />
      <path
         d="m 528.063,585.903 0.243,-0.242 c 0,-0.242 0.242,-0.242 0.242,-0.485 z"
         fill="#6a4d93"
         id="path854" />
      <path
         d="m 360.44,651.811 c -0.242,-0.242 -0.485,-0.485 -0.727,-0.727 0.242,0.485 -2.18,0.242 0.727,0.727 z"
         fill="#6a4d93"
         id="path856" />
      <path
         d="m 427.295,413.863 c 0,-0.242 0.243,-0.242 0.485,-0.242 -0.242,0 -0.485,0 -0.485,0 -0.242,0 -0.242,0.242 0,0.242 z"
         fill="#6a4d93"
         id="path858" />
      <path
         d="m 539.691,573.545 -1.212,2.423 c 0.485,-0.484 0.969,-1.453 1.212,-2.423 z"
         fill="#6a4d93"
         id="path860" />
      <path
         d="m 462.419,679.192 -0.484,-0.242 c 0,0.242 0.242,0.242 0.484,0.242 z"
         fill="#6a4d93"
         id="path862" />
      <path
         d="m 535.33,583.48 c -0.484,0.242 -0.726,0.727 -1.211,1.212 0,0.242 0,0.242 0,0.484 z"
         fill="#6a4d93"
         id="path864" />
      <path
         d="m 342.272,647.934 c 2.423,0.727 1.454,-0.485 2.181,-0.727 2.906,0.727 1.211,0.969 1.937,1.938 1.938,0.485 3.634,0 4.845,0.485 0,0.242 0.242,0.242 0,0.485 2.18,-0.243 5.814,1.453 8.478,1.211 0.242,0 0.242,0.243 0.242,0.243 -0.242,-0.485 -0.242,-0.97 0,-1.212 1.212,0.242 2.18,-0.242 2.423,0.485 -0.727,-0.243 -0.727,0 -1.211,0.242 h 1.211 c 0.969,0.969 -1.696,0 -1.696,0.485 2.422,0.242 5.087,0 7.025,0.484 0.242,0.969 -4.118,-0.484 -1.938,0.727 l -2.665,-0.727 c 1.938,1.696 -1.695,-0.484 0,1.212 3.149,0.727 3.876,0.484 6.541,0.727 h 0.242 c -0.242,0 0.484,0 0.969,0.242 0.969,-0.485 -0.243,-0.727 0.726,-0.969 5.329,-0.485 4.118,2.423 7.994,1.211 0.969,-0.484 1.453,-1.696 4.118,-0.969 l -0.969,0.969 c 3.634,0 1.938,-1.454 5.814,-0.727 -0.727,0.485 -2.665,0.485 -2.18,0.485 2.422,0.727 1.695,-0.485 3.633,-0.727 l 0.484,0.727 c 3.876,-0.242 7.994,-1.212 12.112,-1.696 -0.242,0.242 -0.969,0.484 0,0.727 5.329,-0.97 11.143,-1.212 16.229,-1.696 l 1.696,-0.97 c 0.485,0 0.969,0.243 0.485,0.485 1.937,-0.242 0,-0.485 0.968,-0.969 1.212,-0.243 1.454,0 0.969,0.484 1.696,-0.727 4.118,-1.454 6.541,-2.18 1.211,-0.485 2.422,-0.727 3.391,-0.97 0.484,0 0.969,-0.242 1.453,-0.242 0.242,0 0.485,0 0.727,0 0.242,0 0.242,0 0.242,0 l -0.242,0.242 c 0.484,0 0.727,-0.484 1.211,-0.484 0.485,0 0.727,0.242 0.727,1.211 0,-0.242 -0.242,-0.242 -0.242,-0.242 0.968,2.665 2.664,5.815 4.602,8.481 1.938,2.665 3.633,4.846 4.845,7.027 1.453,0 4.117,4.604 5.329,3.877 1.937,2.907 1.211,2.423 3.633,6.3 0.727,0.727 1.453,1.211 2.422,1.454 l 0.243,0.242 h 0.242 l 0.242,0.242 c 0.242,0 0.485,0.242 0.485,0.485 l -0.485,0.484 2.18,0.97 0.242,1.453 1.212,0.97 c -0.485,-0.485 -0.727,-1.212 -0.485,-1.212 2.18,1.454 4.36,4.119 4.118,4.604 1.696,0.969 3.391,1.939 5.087,2.908 -0.242,0.242 -1.211,-0.243 -1.938,-0.485 2.907,1.212 0,0.969 2.665,1.939 -0.243,-0.243 0.484,-0.243 0.484,-0.243 0.969,1.212 3.633,2.908 5.814,3.877 l -0.727,0.242 c 3.633,2.424 7.993,4.12 12.596,6.058 -1.454,-0.969 -0.727,-1.454 0.484,-0.969 l 0.243,0.969 c 0.968,0 -1.212,-0.727 0.726,-0.727 1.696,0.727 0.727,1.212 -0.242,1.212 l 2.422,0.727 c 0.243,0.242 -0.726,0 -0.969,0.242 0.727,0 2.18,0.727 3.876,1.454 1.696,0.727 3.634,1.454 4.602,1.454 l 0.485,0.484 c 8.236,3.635 12.838,5.816 18.894,8.724 -0.242,-0.485 -0.727,-0.727 -0.969,-1.212 -0.242,-0.242 -0.484,-0.485 -0.484,-0.727 -0.243,-0.242 -0.485,-0.727 -0.727,-0.969 -2.18,-1.696 -3.634,-3.393 -6.298,-5.816 -1.211,-1.696 -2.422,-3.392 -3.634,-5.088 -1.453,-1.939 -3.149,-4.119 -5.086,-6.3 -2.665,-2.908 -1.212,-0.727 -2.665,-1.696 0,0 0,-0.485 -0.242,-0.727 0,-0.242 -0.242,-0.727 -0.485,-0.969 -0.242,-0.727 -0.484,-0.97 0.243,-0.485 -2.665,-3.392 -3.149,-4.119 -6.541,-7.996 0,0.484 0.485,1.211 0,0.969 -0.726,-0.727 -0.969,-1.938 -0.726,-1.938 l 0.242,0.242 c -1.938,-2.181 -3.391,-5.089 -4.603,-7.996 -1.211,-2.908 -2.18,-5.573 -3.633,-7.512 l 0.242,0.242 c -0.969,-1.211 -1.695,-2.665 -2.422,-3.877 -0.727,-1.938 0.969,0.97 0.727,-0.484 -1.454,-2.181 -1.938,-4.119 -2.423,-5.816 -0.484,-1.696 -0.726,-3.392 -1.453,-5.33 0.242,-0.97 0.242,-1.939 0.242,-3.393 0,-0.727 -0.242,-1.454 -0.242,-2.181 -0.242,-0.726 -0.485,-1.696 -0.485,-2.18 -0.726,-2.423 -0.726,-5.573 -0.242,-7.754 l -0.484,0.242 c -0.485,-1.211 0.242,-1.454 0.484,-2.181 -0.242,0.243 -0.484,1.212 -0.726,0.485 v -1.696 -0.243 -0.242 -0.242 c 0,-0.242 0,-0.485 0.242,-0.485 0.242,0 0.242,0 0.484,0 h 0.242 0.727 c 0.727,0 0.969,0 1.454,0 h 0.726 0.485 l 0.969,-0.242 c 0.726,0 1.453,-0.242 1.937,-0.242 5.33,-0.97 10.416,-2.666 15.019,-4.847 3.391,-1.696 0.969,-2.907 5.329,-4.603 -0.242,0.484 -0.485,0.969 -0.727,1.453 3.149,-2.423 6.298,-4.603 9.205,-7.027 2.907,-2.423 5.813,-5.088 7.994,-8.238 -0.243,0.485 0,0.727 -0.485,1.212 1.453,-0.727 3.876,-4.362 3.391,-4.604 0.727,-0.97 0.485,0 1.211,-0.243 1.212,-0.969 1.696,-3.634 2.665,-3.877 0.242,0 0,0.485 -0.242,0.727 0.484,-0.969 2.664,-3.877 1.695,-3.392 1.696,-2.181 2.423,-4.604 3.876,-6.542 0,-1.697 2.422,-4.12 1.696,-5.089 0.969,0.727 2.906,-4.119 2.906,-5.815 0,0.727 0.969,-1.212 0.969,-0.485 0.727,-1.938 1.212,-3.635 0.485,-3.635 2.422,-3.15 1.211,-7.269 3.391,-8.965 0.969,-5.815 1.696,-11.388 2.18,-16.719 0.485,0.242 0.242,1.696 0.242,3.15 -0.242,1.454 -0.484,2.665 0.243,2.665 0.484,-5.088 -0.243,-7.996 0.484,-13.085 0.242,-1.211 0.485,0.727 0.485,1.212 0,-5.088 0.484,-9.692 -0.243,-14.296 0,0 0.243,0.484 0.243,0.969 0,-0.969 0,-2.181 -0.485,-1.938 l 0.242,0.969 c -0.242,0.727 -0.726,-0.243 -1.211,-1.212 -0.484,-0.969 -0.727,-2.181 -0.969,-2.423 1.454,1.454 0,-4.361 1.938,-2.181 -0.242,-0.484 -0.484,-1.211 -0.727,-1.211 0,-0.969 0.243,-1.212 0.727,-0.243 -0.484,-3.15 -0.969,-1.938 -1.453,-4.846 0.242,0 0.484,0.485 0.726,0.727 -0.726,-1.454 -1.453,-2.665 -1.695,-5.088 0.242,0 0.242,-0.243 0.484,0.484 -0.484,-1.938 -1.211,-3.634 -1.938,-5.33 -0.484,-1.697 -1.211,-3.393 -1.937,-5.574 1.453,0.97 -0.243,-1.696 0.726,-2.18 l -0.969,-2.181 v 0.969 c -0.726,-1.938 -2.18,-3.635 -2.422,-5.331 l 0.969,1.454 -1.696,-3.634 0.485,2.18 c -1.211,-1.696 -0.969,0.727 -1.696,-1.938 0.242,0.484 -0.727,-1.939 -0.969,-3.15 -0.726,-0.727 -1.453,-1.696 -1.938,-3.15 0,-0.485 0.969,-0.243 0.969,-0.485 -1.211,-0.484 -2.664,-4.361 -4.118,-5.088 0.485,0.242 0.727,0 0.727,-0.243 l -0.969,-0.484 c -0.242,-0.969 -0.242,-1.212 0,-1.212 -1.453,-2.665 -0.484,1.454 -1.938,-1.696 0.243,0.242 0.243,0 0.485,0.485 -1.696,-3.15 -4.118,-5.331 -6.056,-7.997 0,-1.211 1.938,2.181 1.938,0.727 -3.149,-3.634 -7.025,-6.784 -10.174,-10.177 l 0.485,0.727 c -1.454,0.485 -1.938,-2.907 -4.118,-3.877 0.484,0.243 0.969,0 0.726,0 -2.18,-2.18 -4.844,-4.119 -8.72,-6.784 h 0.727 c -1.211,-1.454 -3.634,-3.15 -5.087,-4.362 -0.727,0 -1.453,-0.727 -1.211,0 -3.876,-5.088 -10.174,-5.573 -14.292,-9.45 0.485,0.242 1.454,0.485 0.969,0.242 -1.453,-0.726 -2.907,-1.211 -4.36,-1.696 0,0.727 0.484,0.485 1.211,1.454 -0.727,0 -1.938,-0.242 -2.907,-0.727 1.938,0.485 0.243,-0.727 -0.242,-1.454 0,0.243 -0.242,0.243 -0.242,0.485 -1.938,-1.938 -0.727,0.727 -3.634,-0.969 l 0.243,-0.243 c -1.212,-0.242 -2.423,-0.242 -3.634,-0.726 -0.242,-0.727 1.211,0.242 1.696,-0.243 -1.696,-0.484 -3.876,0 -5.329,-1.211 0.726,0 1.938,0.484 2.664,0.484 -1.453,-1.211 -1.695,-1.211 -3.149,-1.696 h 0.242 l -2.906,-1.211 0.726,0.484 c -2.664,0.969 -4.602,-0.727 -7.993,-0.484 3.149,-0.243 0.726,-0.485 0.969,-1.212 -0.727,-0.485 -1.938,-0.969 -1.454,-0.969 -1.453,0.242 -2.18,-0.969 -4.36,-0.727 0,-0.242 -1.453,-0.485 -0.969,-0.969 -1.938,-0.243 0.242,0.484 0,0.727 -3.149,0 -6.54,-2.666 -10.658,-2.666 -0.969,0 -1.453,-0.242 -2.18,-0.242 -0.727,0 -1.211,-0.242 -1.696,-0.242 -1.211,0 -2.18,0 -3.875,-0.243 -0.969,-0.727 1.211,-0.727 1.211,-0.727 -1.696,-0.727 -3.149,-0.969 -5.087,-0.727 0.484,-0.242 0,-0.484 -0.484,-0.727 -1.454,0 -0.969,0.97 -2.665,0.485 0.242,-0.242 0.727,-0.727 1.211,-0.969 -1.453,0.242 -3.149,0.484 -4.844,0.484 -0.485,-0.484 1.211,-0.484 1.695,-0.726 -1.695,0 -5.087,-0.243 -5.813,0.484 0.484,0 0.969,0.242 1.211,0.242 -0.727,0 -0.242,-0.484 0.242,-0.726 1.696,-0.243 2.422,0.484 2.422,0.726 h -1.211 c 0.485,0.727 1.696,0.97 3.149,0.727 1.454,0 2.665,-0.484 4.118,-0.484 l -0.969,0.969 c 0.727,-0.242 1.696,-0.485 2.665,-0.727 0.484,0.242 0.726,0.969 -0.485,0.969 1.696,0.727 1.696,-0.242 2.907,0.485 0.242,0 0,0.242 0,0.242 0.484,0 1.211,0 1.696,0 -0.485,0.243 0,0.727 -0.969,0.485 2.664,1.211 4.844,0.727 5.813,1.938 h -0.242 c 4.36,0.97 0.727,-0.484 3.876,-0.484 l 1.695,2.423 0.485,-0.727 c 0.484,0.242 1.211,0.484 0.969,0.727 1.695,0 -0.243,-0.485 0.969,-0.727 1.937,1.211 5.813,1.211 5.813,2.423 0.969,-0.485 -1.938,-0.969 0.485,-0.727 0.242,1.454 2.664,0.485 4.36,1.454 -0.727,0.484 -2.423,-0.242 -0.727,0.727 1.453,-0.727 3.634,0.969 5.329,1.211 0.242,-0.727 3.634,0.485 6.298,0.97 -0.242,0.242 4.603,1.938 7.025,3.15 h -0.242 c 0.726,-0.727 3.149,0.484 4.844,0.969 -0.242,0.484 -0.726,0.484 -1.695,0.242 l 1.695,0.727 c 0.485,0 0.969,0 2.18,0.485 l -0.726,0.484 c 2.18,0.97 4.602,1.454 7.024,3.393 0.485,-0.485 -1.211,-2.666 1.696,-1.454 0,0.242 -0.242,0.969 -0.969,0.484 0.242,0 0.969,0.243 1.453,0.727 l -1.453,-0.242 c 0.969,0.969 0.969,0 1.696,0.485 -0.243,0.484 0.484,0.727 0.242,0.969 -0.242,0 -0.727,-0.727 -1.211,-0.727 0.969,0.727 2.18,1.696 2.422,2.423 0,-0.242 0.242,-0.485 1.211,0 1.938,1.212 0.485,0.969 1.454,1.939 0.726,0 1.695,1.211 2.18,0.726 0.484,0.485 0.484,0.727 0.484,0.97 1.211,0.484 4.602,3.392 3.876,1.938 l -0.242,-0.242 c 0,0 0,0 0.242,0 3.633,1.938 6.056,5.573 9.205,8.238 l -0.243,0.243 c 1.938,1.453 3.876,3.634 5.572,4.361 0.484,0.485 0.726,1.454 0.484,1.454 1.453,1.212 1.696,1.212 3.149,3.392 -1.453,-0.969 0.242,0.727 -1.453,-1.211 1.453,1.938 1.453,2.423 3.633,4.119 -0.969,-0.242 0.485,1.939 1.454,2.666 l -0.727,-1.454 c 0.727,0.969 1.453,1.696 2.18,2.665 h -0.969 c 1.938,4.362 6.298,6.058 6.782,10.177 1.212,0.727 -0.968,-2.423 0.243,-1.696 0.969,1.938 1.211,4.604 1.453,5.088 0.969,2.908 2.422,1.939 3.391,4.847 0,-0.485 0.727,-1.212 1.938,0.969 0.727,2.181 0,2.907 -0.727,1.696 -0.242,-0.485 -0.242,-0.727 -0.242,-0.727 -0.484,-0.727 -0.726,-1.454 -0.726,-0.485 l 0.484,0.243 c 0.242,1.211 1.211,3.877 0.727,3.392 0.969,1.454 0.726,0.485 0.484,-0.727 0.242,1.454 0.727,2.423 1.211,3.392 0.243,0.97 0.727,2.181 0.969,3.635 0,-0.485 0.242,-0.969 0.242,-0.485 0.969,4.12 1.212,1.697 2.181,4.362 0,1.696 -1.212,-0.242 -0.243,2.423 0,1.696 -0.726,0.485 -0.969,0 1.212,2.423 0.727,4.846 0.969,6.3 l -0.484,-1.211 c 0.242,0.727 0.484,1.453 0.484,2.18 l 0.485,-0.969 c 0,0.727 0.242,1.454 0,1.454 0.484,0.727 0.726,-0.727 1.695,0.727 -0.242,1.211 0.969,3.15 0,3.635 -0.242,-3.393 -0.726,0.484 -1.211,-2.424 0.242,0.485 0.242,1.212 0.242,1.939 0,0.242 -0.242,0 -0.242,-0.242 -0.242,3.392 0.969,1.453 1.211,4.846 -0.484,-0.485 -0.726,0.727 -0.484,1.454 0,-1.454 0.727,-0.727 1.211,0.484 -0.242,2.181 0.242,2.423 0.242,3.393 l 0.243,-1.212 c 0.484,0.485 0.484,1.454 0.484,3.15 -0.242,0.242 -0.242,-1.454 -0.484,-0.727 0.968,1.696 -0.727,3.877 -0.243,6.3 -0.242,0.969 -0.726,0 -0.969,0.969 0.485,2.666 -0.726,2.908 -0.484,5.574 0.727,-0.727 0.484,-0.97 0.969,1.211 v -4.604 l 0.484,2.908 c 0.243,-1.454 0,-2.908 0,-3.877 0.243,1.454 0.243,1.212 0.727,0.727 -0.969,1.938 0.242,3.877 -0.727,6.058 l -1.453,-0.243 c -0.969,3.15 0,5.816 -1.211,9.935 l 0.484,-1.212 c 0.485,0.727 -0.484,2.666 -0.484,4.12 -0.485,-0.243 -0.727,0.484 -1.211,0.969 0.484,0 -0.727,2.908 0,3.635 l -1.212,1.696 c -1.211,3.15 0.243,4.119 -0.968,7.269 -0.243,-1.212 -0.969,0.242 -0.727,-1.938 -0.242,0.969 -0.727,1.938 -0.485,2.18 -0.484,0.485 -0.484,3.15 -1.211,3.877 0,0.485 0.485,0.969 0,1.939 -0.242,0 -0.242,0 -0.242,0 0.242,0 -0.484,1.938 0.484,1.211 -2.664,2.666 -3.875,8.723 -6.54,10.662 -0.969,2.181 -2.422,4.604 -3.875,6.542 0,-0.242 -0.243,-0.242 0,-0.484 -2.181,2.18 0,2.423 -2.423,4.846 -1.695,0.969 0.727,-1.696 0,-0.969 -1.453,-0.727 -2.422,3.392 -4.844,4.361 l 0.242,-0.485 c -1.696,0.97 -2.422,3.393 -4.845,5.331 0,0 0,-0.242 -0.242,-0.242 -0.969,1.938 -3.633,4.604 -5.814,6.3 0.243,-0.969 0.727,-0.969 0,-1.212 -0.968,0.727 0.969,0.727 -0.968,2.181 -0.969,0.243 -2.665,0.969 -3.149,0.485 l 1.937,-1.212 c -1.453,0 -2.422,1.696 -3.633,2.181 v -0.485 c -2.907,1.939 -2.665,2.666 -6.056,4.362 h 0.485 c -1.454,1.696 -1.938,0.242 -3.392,1.696 l -0.969,-0.727 c -1.211,0.727 -4.36,2.666 -6.54,3.393 1.211,-0.97 3.876,-2.181 5.329,-3.15 -1.211,0.484 -4.36,1.453 -4.844,2.18 0.484,-0.242 1.211,-0.727 1.695,-0.727 -1.453,1.212 -3.633,2.181 -6.055,2.424 0.242,-0.485 -0.243,-0.727 -1.212,-0.727 -0.484,0 -0.969,0 -1.211,0 -0.484,0 -1.453,0 -2.18,0.242 -0.727,0 -1.453,0.242 -2.18,0.727 -0.727,0.484 -0.969,1.211 -0.969,1.696 -0.242,0.727 -0.242,1.454 -0.242,1.938 0,0.727 -0.242,0.97 -0.485,1.454 0.485,2.423 0.243,4.847 0.243,7.512 0,1.454 0,2.908 0.242,4.361 0.242,1.212 0.484,2.666 0.727,4.12 1.211,-2.181 0.242,1.696 1.695,0.969 0.242,1.212 0.485,1.938 0.242,1.938 0,1.454 0,2.908 0,4.362 -0.242,1.212 -0.726,-1.212 -0.968,-0.969 0.726,3.15 -0.243,1.454 0,3.634 0.484,-0.484 0.968,0.727 1.453,2.666 0,-0.969 0,-1.696 0,-2.666 0.969,1.939 0.969,2.908 0.969,3.877 0,0.97 0,1.939 1.211,3.877 l -0.969,-1.211 c 0.969,1.938 3.391,7.511 5.329,8.723 0,0.484 0,0.969 -0.727,0.242 2.423,4.846 7.025,9.208 8.721,12.843 h -0.485 c 0.727,0.726 1.454,0.969 1.938,2.18 -0.242,0 -0.484,0 -0.242,0.243 0.484,0.242 1.938,1.696 2.664,2.907 l -0.968,-0.727 c 0.726,0.97 1.211,1.939 1.937,2.666 0.243,0.242 0.485,0.727 0.727,0.969 0.242,0.242 0.485,0.242 0.727,0.485 l 0.726,0.484 0.727,0.485 c 0.485,0.242 0.969,0.727 1.454,1.211 -0.969,-0.242 -1.454,-0.242 -1.696,-0.242 -0.242,0 -0.485,0 -0.727,0 l -0.484,-0.242 c 0,0 0,0 0.242,0.242 0.242,0.242 0.242,0.485 0.242,0.727 0,0.242 -0.484,0.485 -1.453,0.242 -0.242,-0.242 -0.485,-0.484 -0.485,-0.484 -0.242,0 0,0 -0.242,-0.243 -0.242,-0.242 -0.484,-0.242 -0.727,-0.484 -1.211,-0.727 -2.422,-1.212 -3.633,-1.939 -2.665,-1.211 -5.571,-2.665 -7.509,-4.361 0.484,0.484 -0.485,0.727 -1.454,0.242 -0.968,-0.727 -3.391,-1.211 -2.664,-1.938 l 0.242,0.242 c -0.242,-1.212 -2.422,-2.423 -4.118,-3.635 l -0.969,0.97 c -1.695,-2.181 -4.36,-4.12 -7.024,-5.816 -2.423,-1.696 -4.845,-3.392 -5.087,-5.088 -0.242,0 -0.242,-0.243 -0.485,-0.243 l 0.243,0.243 c -0.969,-0.485 -1.696,-1.454 -2.665,-2.181 l 0.484,-0.485 c -2.18,-2.907 -3.391,-4.361 -6.782,-7.269 l 0.969,0.242 c -1.696,-1.696 -3.634,-0.727 -5.087,-2.423 l 0.242,-1.211 c -1.453,-1.454 -2.422,-3.393 -3.633,-5.089 -0.969,-1.696 -1.938,-3.392 -3.391,-5.088 0.242,0 0.484,0 0.726,0.484 -0.242,-0.484 -0.484,-0.969 -0.726,-1.696 -0.243,-0.485 -0.243,-0.727 -0.485,-1.211 -0.242,-0.727 -0.727,-1.454 -0.969,-2.181 -0.726,-1.212 -1.695,-1.939 -2.422,-1.939 -0.727,0 -1.211,0.243 -0.969,0.485 0,-0.242 -0.242,-0.485 -0.969,-0.485 -0.727,0 -1.938,0.485 -2.422,0.485 -1.454,0.485 -3.149,1.211 -4.118,1.696 l 0.242,-0.727 c -1.696,1.212 -1.696,1.454 -4.36,2.423 -0.727,0 -0.727,-0.484 0.242,-0.484 -2.18,0.242 -1.453,0.969 -4.118,1.211 l 0.969,-0.727 c -2.18,0.485 -1.938,0.485 -2.907,1.212 -1.211,0.484 -4.118,0.484 -4.602,0 -0.242,0.484 -1.211,1.211 -2.665,1.211 -0.242,-0.242 0.243,-0.484 0.485,-0.484 -3.634,0 -5.329,1.454 -7.994,1.211 0,-0.242 -0.242,-0.242 -0.484,-0.242 2.907,-0.242 5.329,-0.727 5.087,-0.485 0,-0.727 -2.423,-0.484 -0.727,-1.453 -1.696,0.726 -4.845,2.18 -7.267,2.18 0,0 -0.242,0 -0.242,-0.242 h 0.242 c -0.484,0 -0.969,0 -1.453,0.242 -0.727,0 -1.212,0 -1.938,0 -0.242,-0.484 -2.665,0 -3.876,0 0.242,0.727 -1.453,0.727 0,1.212 -0.242,0 0.242,0 0.969,-0.242 0.242,0 0.484,0 0.484,0 0.727,0 1.696,-0.243 2.907,-0.243 -0.969,0.485 -1.938,0.727 -3.149,0.485 -0.484,0.484 -1.211,0.969 -1.453,1.211 -1.696,-0.727 -4.845,-1.211 -5.329,-1.696 -3.634,0.485 -8.478,0.485 -10.658,1.454 -0.969,0.242 -1.211,-0.485 -1.454,-0.727 0.485,0 1.211,0 1.696,-0.242 -1.938,0.242 -6.056,-0.243 -6.54,0.727 -2.423,-0.485 0.969,-0.727 -1.211,-0.727 h 0.242 c -0.242,0 -0.485,0 -0.969,0 l 0.484,-0.242 c -3.391,-1.212 -6.056,-0.97 -8.962,-1.212 -2.907,0 -6.056,-0.242 -9.447,-2.181 0.484,0.243 0.726,0.485 0.726,0.485 -8.235,-3.15 -17.44,-5.089 -24.465,-10.177 -1.938,-1.454 -2.422,-0.969 -4.118,-1.454 v -0.969 c -0.969,-0.243 -1.695,-0.485 -2.664,-0.485 -1.696,-0.727 -2.907,-1.938 -4.118,-3.15 -1.211,-1.211 -2.423,-2.665 -4.603,-3.392 l 0.243,0.727 c -1.212,-0.97 -4.361,-2.908 -3.876,-3.15 -0.242,0 -0.727,0 -1.211,-0.485 l 0.242,-0.242 c -1.211,-0.727 -2.422,-1.454 -3.634,-2.181 -2.18,-2.423 1.454,-0.727 -1.937,-3.877 -1.454,-0.969 -4.118,-2.665 -3.876,-1.938 0.484,0.484 0.969,1.453 0.969,1.696 l -1.211,-0.969 c -0.969,0.484 -2.665,0.484 -0.485,3.876 0.727,0.485 1.696,0.97 2.423,1.454 l 0.242,0.97 -1.696,-1.454 c 0.727,1.211 1.454,1.454 2.422,1.938 0,0.485 0.243,0.727 0.485,1.212 l 2.664,0.969 c 0,0.485 -1.453,0 -0.242,1.211 1.211,0.485 -0.242,-1.453 1.454,-0.484 0.726,1.211 0.242,1.211 1.695,1.938 0,0.485 -0.484,0.243 -0.969,0 1.211,0.485 2.907,2.181 3.876,2.181 0.727,1.212 3.876,2.423 3.149,3.392 0.484,0 2.422,0.727 3.633,1.212 -2.664,-0.242 3.876,2.423 2.665,3.392 1.938,0 5.571,2.666 8.72,3.393 -0.242,0 -0.484,0 -0.726,-0.243 1.453,0.727 1.695,1.454 2.664,1.939 0.485,-0.727 3.149,0.242 4.603,0.242 1.453,1.696 -1.696,0.485 -1.454,1.696 0.242,-0.727 3.634,0.727 3.149,-0.242 1.211,1.212 1.211,0.727 1.696,1.696 0.726,-0.969 1.453,0.242 2.907,0 1.937,1.454 0.242,1.212 2.664,1.696 0.485,-2.423 -1.696,-2.665 -1.696,-2.665 z m 59.589,3.877 c -0.484,0 -0.969,0.242 -1.211,0.242 0.242,-0.242 0.727,-0.242 1.211,-0.242 z m 5.087,-0.727 c -0.727,0 -1.453,0.242 -2.18,0.242 -0.242,-0.242 0,-0.484 0.485,-0.484 -0.243,0.242 0.968,0.242 1.695,0.242 z m -10.9,-3.635 c 0.726,-0.242 0.969,0 1.211,0 -0.242,0 -0.727,0 -1.454,0.243 0,0 10e-4,0 0.243,-0.243 z"
         fill="#6a4d93"
         id="path866" />
      <path
         d="m 394.595,648.418 h -0.242 c 0.242,0.243 0.242,0.243 0.242,0 0.242,0 0.242,0 0.484,0 0,0 -0.242,0 -0.484,0 z"
         fill="#6a4d93"
         id="path868" />
      <path
         d="m 457.816,675.8 v -0.242 h -0.484 z"
         fill="#6a4d93"
         id="path870" />
      <path
         d="m 477.922,427.918 c 0,0 0,-0.243 -0.242,-0.243 0,0 0.242,0 0.242,0.243 z"
         fill="#6a4d93"
         id="path872" />
      <path
         d="m 466.779,423.556 -1.453,-0.727 c 0.484,0.485 0.969,0.727 1.453,0.727 z"
         fill="#6a4d93"
         id="path874" />
      <path
         d="m 457.816,421.133 c -0.242,0 -0.242,0.242 -0.242,0.242 z"
         fill="#6a4d93"
         id="path876" />
      <path
         d="m 547.442,525.083 c 0,0.243 0,0.243 0,0.243 0.242,0.727 0.242,0.242 0,-0.243 z"
         fill="#6a4d93"
         id="path878" />
      <path
         d="m 535.815,483.164 c 0.242,0.242 0.727,0.727 0.969,1.211 -0.485,-0.969 -0.727,-1.454 -0.969,-1.211 z"
         fill="#6a4d93"
         id="path880" />
      <path
         d="m 539.933,573.303 -0.242,0.242 z"
         fill="#6a4d93"
         id="path882" />
      <path
         d="m 537.51,486.072 c -0.242,-0.727 -0.484,-1.454 -0.726,-1.939 0,0.727 0.242,1.454 0.726,1.939 z"
         fill="#6a4d93"
         id="path884" />
      <path
         d="m 418.817,412.652 h -0.484 c 0.242,0.243 0.484,0.243 0.484,0 z"
         fill="#6a4d93"
         id="path886" />
      <path
         d="m 417.122,412.895 1.211,-0.243 c -0.484,0 -0.969,0 -1.211,0.243 z"
         fill="#6a4d93"
         id="path888" />
      <path
         d="m 435.289,415.075 c -0.969,-0.242 -2.18,-1.211 -3.391,-1.211 l -0.242,0.242 c 0.726,-0.485 2.664,0.969 3.633,0.969 z"
         fill="#6a4d93"
         id="path890" />
      <path
         d="m 449.096,422.102 -2.907,-0.969 c 0.485,0.484 0.969,0.969 -0.242,0.727 3.391,1.696 -0.726,-0.727 3.149,0.242 z"
         fill="#6a4d93"
         id="path892" />
      <path
         d="m 458.301,424.525 c -1.696,-0.242 0,0.485 -0.242,0.485 0.969,0 1.211,0 0.242,-0.485 z"
         fill="#6a4d93"
         id="path894" />
      <path
         d="m 515.467,458.691 -0.484,0.242 c 0.969,0.97 0.242,-0.242 0.484,-0.242 z"
         fill="#6a4d93"
         id="path896" />
      <path
         d="m 526.368,466.687 -0.485,-1.211 -0.726,-0.243 z"
         fill="#6a4d93"
         id="path898" />
      <path
         d="m 527.095,475.41 -0.242,-0.243 1.211,1.454 z"
         fill="#6a4d93"
         id="path900" />
      <path
         d="m 528.791,582.995 h 0.968 c 0.243,-0.727 -0.484,-1.454 -0.968,0 z"
         fill="#6a4d93"
         id="path902" />
      <path
         d="m 494.878,616.434 c -0.727,0 -1.938,0.242 -2.665,0.969 1.212,-0.484 2.18,-0.727 2.665,-0.969 z"
         fill="#6a4d93"
         id="path904" />
      <path
         d="m 471.866,679.434 0.969,0.242 -1.696,-0.969 z"
         fill="#6a4d93"
         id="path906" />
    </g>
  </g>
</svg>
