<?xml version="1.0" encoding="UTF-8" standalone="no"?>
<svg
   xmlns:dc="http://purl.org/dc/elements/1.1/"
   xmlns:cc="http://creativecommons.org/ns#"
   xmlns:rdf="http://www.w3.org/1999/02/22-rdf-syntax-ns#"
   xmlns:svg="http://www.w3.org/2000/svg"
   xmlns="http://www.w3.org/2000/svg"
   xmlns:sodipodi="http://sodipodi.sourceforge.net/DTD/sodipodi-0.dtd"
   xmlns:inkscape="http://www.inkscape.org/namespaces/inkscape"
   width="841.90002mm"
   height="595.29999mm"
   viewBox="0 0 841.90002 595.29999"
   version="1.1"
   id="svg2511"
   inkscape:version="1.0.1 (3bc2e813f5, 2020-09-07)"
   sodipodi:docname="autonomia.svg">
  <defs
     id="defs2505" />
  <sodipodi:namedview
     id="base"
     pagecolor="#ffffff"
     bordercolor="#666666"
     borderopacity="1.0"
     inkscape:pageopacity="0.0"
     inkscape:pageshadow="2"
     inkscape:zoom="0.175"
     inkscape:cx="1474.1516"
     inkscape:cy="915.50727"
     inkscape:document-units="mm"
     inkscape:current-layer="layer1"
     inkscape:document-rotation="0"
     showgrid="false"
     inkscape:window-width="1366"
     inkscape:window-height="738"
     inkscape:window-x="0"
     inkscape:window-y="94"
     inkscape:window-maximized="0" />
  <metadata
     id="metadata2508">
    <rdf:RDF>
      <cc:Work
         rdf:about="">
        <dc:format>image/svg+xml</dc:format>
        <dc:type
           rdf:resource="http://purl.org/dc/dcmitype/StillImage" />
        <dc:title></dc:title>
      </cc:Work>
    </rdf:RDF>
  </metadata>
  <g
     inkscape:label="Layer 1"
     inkscape:groupmode="layer"
     id="layer1">
    <g
       id="g6027"
       transform="matrix(1.8762614,0,0,1.8762614,-1593.2868,-1543.4636)">
      <g
         id="g5926">
        <path
           d="m 983.214,1084.33 c 0.243,0.73 0.727,0.25 0.485,-1.45 l -0.727,-1.21 z"
           fill="#6a4d93"
           id="path908" />
        <path
           d="m 985.394,1072.22 c -0.242,-2.18 -0.484,-4.61 -1.453,-3.39 0.484,2.18 0.242,2.66 0.969,5.08 0,1.7 -0.485,3.15 -0.727,2.91 0.242,0.73 -0.242,2.91 0.242,3.88 0.727,-2.42 0.969,-5.33 0.727,-8.48 0,-0.73 0,-0.24 0.242,0 z"
           fill="#6a4d93"
           id="path910" />
        <path
           d="m 1110.87,983.532 c -0.48,0 -0.73,0.243 -0.97,0.243 0,0 0.49,-0.243 0.97,-0.243 z"
           fill="#6a4d93"
           id="path912" />
        <path
           d="m 1210.18,998.313 c -0.72,-0.484 -0.96,-0.727 -0.96,-0.727 0.48,0.727 0.96,0.97 0.96,0.727 z"
           fill="#6a4d93"
           id="path914" />
        <path
           d="m 1221.33,1012.61 c -0.24,-0.24 -0.49,-0.49 -0.49,-0.97 0.25,0.48 0.49,0.73 0.49,0.97 z"
           fill="#6a4d93"
           id="path916" />
        <path
           d="m 1110.87,983.532 2.66,-0.727 c 0,-0.242 -1.45,0.242 -2.66,0.727 z"
           fill="#6a4d93"
           id="path918" />
        <path
           d="m 988.301,1047.99 c -0.242,0.48 -0.242,1.21 -0.242,1.69 0,-0.48 0.242,-0.97 0.242,-1.69 z"
           fill="#6a4d93"
           id="path920" />
        <path
           d="m 1071.14,1008.73 -0.72,0.49 c -0.24,0.24 -0.24,0.48 -0.24,0.72 z"
           fill="#6a4d93"
           id="path922" />
        <path
           d="m 1043.77,1032.48 c 0.97,0.48 1.46,0 1.94,-0.24 -0.48,0 -1.45,-0.25 -2.18,-0.25 0,0 0,0.25 0.24,0.49 z"
           fill="#6a4d93"
           id="path924" />
        <path
           d="m 994.357,1041.69 -0.484,0.97 c 0.242,-0.25 0.242,-0.73 0.484,-0.97 z"
           fill="#6a4d93"
           id="path926" />
        <path
           d="m 1048.37,887.82 c 0,-0.242 0,-0.242 0,0 -0.24,-0.242 -0.24,-0.242 0,0 z"
           fill="#6a4d93"
           id="path928" />
        <path
           d="m 1062.42,863.347 -0.48,-0.243 -0.24,0.243 z"
           fill="#6a4d93"
           id="path930" />
        <path
           d="m 1232.47,1042.9 c 0,-0.24 0,-0.24 0,0 -0.24,-0.97 -0.24,-0.49 0,0 z"
           fill="#6a4d93"
           id="path932" />
        <path
           d="m 981.761,1126.01 c 3.391,0.97 -5.571,0.24 -0.485,1.45 -0.484,-0.48 4.845,-0.72 0.485,-1.45 z"
           fill="#6a4d93"
           id="path934" />
        <path
           d="m 988.786,1047.02 c 0.242,-0.49 0.484,-0.97 0.484,-1.46 -0.242,0.73 -0.484,1.22 -0.484,1.46 z"
           fill="#6a4d93"
           id="path936" />
        <path
           d="m 981.276,1127.22 0.485,0.24 c -0.242,0 -0.242,0 -0.485,-0.24 z"
           fill="#6a4d93"
           id="path938" />
        <path
           d="m 1208,1109.53 c 0.25,0 0.49,0 0.73,-0.24 0,0 0,0 -0.73,0.24 z"
           fill="#6a4d93"
           id="path940" />
        <path
           d="m 1234.41,1061.8 -0.24,1.45 c 0.24,-0.48 0.24,-0.97 0.24,-1.45 z"
           fill="#6a4d93"
           id="path942" />
        <path
           d="m 1182.09,1122.62 c -0.73,0.24 -0.97,0.24 -1.94,0.48 h 0.24 c 0.24,-0.24 0.73,-0.48 1.7,-0.48 z"
           fill="#6a4d93"
           id="path944" />
        <path
           d="m 1151.81,1128.43 c 0.24,0 0.48,0 0.48,0 0.24,0 0.73,0 0.97,-0.24 z"
           fill="#6a4d93"
           id="path946" />
        <path
           d="m 1083.26,838.874 c 0.24,0.727 0.24,1.212 0.24,1.696 0,-0.727 2.42,3.392 -0.24,-1.696 z"
           fill="#6a4d93"
           id="path948" />
        <path
           d="m 988.786,1048.23 c 0,-0.24 0,-0.49 0,-0.97 -0.243,0.24 -0.243,0.73 -0.243,0.97 0,0 0,0 0.243,0 z"
           fill="#6a4d93"
           id="path950" />
        <path
           d="m 1182.33,1127.95 c -1.7,0.48 -3.39,0.97 -5.09,1.21 1.7,-0.24 3.39,-0.48 5.09,-1.21 z"
           fill="#6a4d93"
           id="path952" />
        <path
           d="m 933.8,969.236 0.242,-1.212 c 0,0.485 -0.242,0.727 -0.242,1.212 z"
           fill="#6a4d93"
           id="path954" />
        <path
           d="m 1162.71,1132.31 c -0.97,0 -1.94,0 -2.91,0 -0.24,0 -0.48,0.24 -0.48,0.24 z"
           fill="#6a4d93"
           id="path956" />
        <path
           d="m 1099.24,869.647 c -1.93,-4.604 -1.69,-1.696 -2.66,-2.665 -2.67,-5.089 -0.49,-2.666 -0.97,-4.604 -1.7,-3.15 -3.63,-5.331 -4.85,-7.512 0,-0.242 -0.24,-0.727 0.25,-0.242 -2.18,-3.15 -4.85,-9.935 -7.75,-13.569 0,-0.243 0,-0.485 0,-0.727 0,0.727 -0.49,1.211 -0.73,1.211 -0.97,-1.938 -2.42,-3.15 -2.18,-4.119 0.73,1.212 0.97,1.211 1.45,1.696 l -1.21,-1.938 c -0.24,-2.181 1.7,2.665 2.18,2.18 -2.42,-3.877 -5.57,-7.996 -8.23,-10.419 0,-0.484 1.69,0.727 2.66,1.939 0.97,1.211 1.7,2.18 0.48,0 1.22,1.453 1.94,3.15 2.91,4.603 -0.97,-4.119 1.7,2.908 0.97,-1.211 -1.7,-3.15 -3.15,-4.846 -4.84,-6.3 -0.49,-0.485 -0.97,-0.727 -1.46,-1.212 -0.48,-0.242 -1.21,-0.727 -1.69,-0.969 -1.21,-0.485 -2.67,-1.211 -4.61,-1.696 -1.69,0 0.49,0.727 -1.45,0.727 -2.66,-0.242 -4.36,-0.242 -5.81,-0.485 -1.46,0 -2.43,-0.242 -3.15,-0.484 -1.7,-0.243 -3.15,-0.485 -6.78,0.969 -1.7,1.211 -2.18,2.181 -7.03,3.635 l 1.21,-1.454 c -3.15,1.211 -3.87,1.938 -4.6,2.665 -0.73,0.727 -1.7,1.212 -4.84,2.665 0.96,-0.969 4.6,-2.665 3.63,-2.423 -4.36,1.454 -2.67,1.939 -5.57,3.635 l -0.97,-0.242 c -6.06,3.634 -12.36,8.481 -18.41,13.327 0.24,-0.485 1.21,-1.454 -0.49,-0.485 -7.75,6.058 -16.709,12.6 -24.461,18.173 -0.727,0.97 -1.695,1.939 -2.422,3.15 -0.727,0.727 -1.453,0.97 -0.727,0.243 -2.907,2.665 0.242,0.484 -0.969,1.938 -1.453,1.696 -2.18,1.939 -1.453,0.727 -2.18,2.665 -4.845,7.027 -6.783,11.146 -1.937,4.119 -4.844,7.754 -7.024,10.177 l 0.726,-1.211 c -3.391,4.119 -2.422,5.815 -5.571,9.45 l 0.485,-0.97 c -6.783,9.45 -12.354,21.324 -16.714,29.078 0.242,0.969 -1.211,3.634 -2.18,6.3 -0.969,2.665 -1.938,5.088 -1.454,5.815 -2.664,6.058 -2.18,4.119 -5.813,12.6 -0.969,2.181 -0.485,3.635 -1.454,6.542 l -0.726,-0.242 -0.969,4.119 -1.696,1.697 -0.969,2.665 c 0.485,-0.969 1.211,-2.181 1.454,-1.939 -1.454,4.362 -4.603,10.177 -4.845,10.177 -0.969,3.393 -1.938,7.027 -2.665,10.42 -0.242,-0.243 0.243,-1.939 0.485,-3.393 -0.969,5.816 -0.969,0.727 -1.938,6.058 0.242,-0.727 0.242,0.485 0.484,0.727 -1.211,2.423 -2.664,7.996 -3.875,12.36 l -0.242,-0.97 c -2.181,7.51 -4.118,16.23 -6.056,24.71 0.969,-3.15 1.695,-2.18 1.211,0.49 l -0.969,0.73 c 0,1.69 0.969,-2.67 0.727,0.96 -0.727,3.15 -1.454,1.94 -1.211,0 l -1.454,4.37 c -0.242,0.24 -0.242,-0.73 -0.484,-0.97 0,1.69 -2.18,6.54 -1.938,9.2 l -0.242,0.25 c -1.696,8.72 -2.18,12.84 -2.907,20.11 0.242,0 0.484,0.97 0.484,1.94 0,0.48 0,1.21 0.243,1.69 0,0.73 0,1.22 0.242,1.7 -0.242,1.21 -0.242,2.67 -0.485,3.88 -0.242,1.21 -0.242,2.9 -0.484,3.87 -0.242,0.49 -0.485,1.46 -0.727,2.43 0,0.72 0,0.97 0,1.21 v 1.21 c 0,1.7 0,2.91 -0.242,4.36 -0.242,4.36 0.484,1.46 0.727,3.39 -0.243,0 -0.727,1.94 -0.727,3.15 -0.242,1.22 -0.242,1.94 -0.485,0.25 0,3.63 -0.484,6.3 0.485,9.69 0.969,3.15 3.149,6.06 7.025,9.45 -0.727,-0.97 -1.454,-1.94 -0.727,-1.7 1.453,1.21 2.907,3.15 2.422,3.15 l -0.484,-0.24 c 4.602,3.39 9.931,7.27 15.503,9.93 5.571,2.67 11.142,4.61 15.502,5.09 h -0.484 c 2.907,0.49 5.813,1.21 8.962,1.7 4.118,0.97 -2.664,-0.24 0.485,0.97 4.844,0.73 8.72,1.45 12.354,1.94 3.633,0.48 7.024,0.97 11.142,1.21 6.056,2.42 22.048,1.45 30.038,3.15 l -0.73,-0.24 c 2.18,-0.25 2.67,0.48 4.12,0.72 -0.24,-0.24 -2.18,-0.48 -0.97,-0.72 8.96,0.48 18.41,1.69 27.86,2.66 9.44,0.97 19.13,1.7 28.34,2.18 6.78,0.24 3.87,-2.18 12.59,-1.21 l -2.42,0.73 c 3.39,-0.24 7.03,-0.49 10.42,-0.49 3.63,-0.24 7.02,-0.48 10.66,-0.72 7.02,-0.49 14.05,-0.97 20.59,-1.94 -0.73,0.24 -0.73,0.48 -2.18,0.48 2.9,0.49 10.41,-0.72 10.41,-1.21 2.18,0 0.49,0.49 1.94,0.49 2.91,0.24 7.02,-1.22 8.72,-0.73 0.24,0 -0.73,0.24 -1.21,0.24 1.94,-0.48 8.72,-0.48 6.78,-1.21 0.24,0 0.24,0 0.24,0 h -0.24 1.21 0.97 c 0.73,0 1.21,0 1.7,-0.24 1.21,-0.25 2.42,-0.25 3.39,-0.49 2.18,-0.24 4.36,-0.72 6.3,-0.72 2.42,-0.97 8.72,-0.97 9.44,-2.19 -0.24,1.22 8.97,-0.96 12.11,-2.42 -0.96,0.73 2.91,-0.48 1.7,0.24 3.63,-1.21 6.78,-2.66 6.06,-2.9 1.69,-0.25 3.39,-0.97 4.84,-1.7 1.21,-0.73 2.67,-1.21 4.12,-1.94 1.45,-0.73 2.91,-1.21 4.12,-1.69 1.45,-0.49 2.42,-0.97 3.63,-1.22 9.93,-6.3 16.47,-14.53 21.56,-23.26 0.48,0.49 -0.97,2.91 -2.67,5.09 -1.45,2.18 -3.14,4.36 -2.66,4.36 2.91,-3.87 4.6,-7.27 6.3,-10.66 1.69,-3.39 3.15,-6.78 5.08,-10.9 0.97,-2.18 0,1.45 -0.24,2.18 0.49,-0.97 0.73,-2.18 1.21,-3.15 l 0.49,-1.7 0.24,-0.73 0.24,-0.48 v -0.24 c 0,0.24 -0.24,0.24 -0.24,0.24 l 0.24,-0.73 c 2.18,-6.78 3.39,-13.32 3.39,-19.87 0,0 0.25,0.97 0.25,1.94 0,-1.69 0.24,-3.88 -0.25,-3.63 v 1.69 c -0.48,1.22 -0.72,-0.48 -0.97,-2.42 -0.24,-1.94 -0.72,-4.36 -0.96,-4.6 0.72,1.45 0.72,-0.73 0.72,-2.67 0,-1.94 0,-3.63 1.21,-1.45 -0.24,-1.21 -0.48,-2.43 -0.97,-2.18 0,-1.7 0,-2.18 0.73,-0.49 -1.21,-5.81 -1.21,-3.63 -2.42,-8.96 0.24,0 0.48,0.97 0.97,1.45 -0.97,-2.67 -2.18,-5.09 -3.39,-9.45 0.24,0.24 0.24,-0.24 0.72,0.97 -1.21,-3.88 -3.15,-7.03 -4.6,-10.42 -0.48,-0.73 -0.73,-1.21 -1.21,-1.94 -0.48,-0.73 -0.97,-1.45 -1.45,-2.18 -0.97,-1.45 -1.94,-2.91 -3.15,-4.6 2.42,1.45 -1.46,-2.67 -0.97,-3.4 -0.97,-1.21 -2.18,-2.18 -3.15,-3.39 0.24,0.49 0.48,1.21 0.97,1.7 -2.67,-3.15 -5.33,-5.332 -7.75,-7.755 l 2.42,1.938 c -1.7,-1.696 -3.63,-3.392 -5.57,-5.088 0.97,0.969 1.94,2.18 2.9,3.15 -3.14,-2.423 -0.48,1.211 -4.11,-2.666 0.97,0.727 -2.91,-2.665 -4.12,-4.361 -1.7,-0.97 -3.39,-2.181 -5.81,-3.877 -0.49,-0.727 0.96,-0.485 0.72,-0.97 -0.97,-0.242 -2.9,-1.453 -5.33,-2.665 -1.21,-0.484 -2.42,-0.727 -3.39,-1.211 -0.97,-0.243 -1.69,-0.727 -2.42,-0.727 0.73,0.242 1.21,-0.243 0.97,-0.485 -0.73,0 -1.21,-0.242 -1.94,-0.242 -1.7,-0.97 -1.94,-0.969 -1.45,-1.212 -2.43,-0.969 -2.18,-0.727 -1.94,-0.242 0.24,0.242 0.24,0.727 -2.67,-0.969 0.49,0.242 0.25,0 1.46,0.484 -1.46,-0.969 -3.15,-1.454 -4.6,-1.938 -1.7,-0.485 -2.91,-0.727 -4.61,-1.212 -0.72,-0.242 -1.69,-0.242 -2.42,-0.242 -0.97,0 -1.45,0 -2.18,0 -1.45,0 -2.91,-0.242 -4.6,-0.485 -0.97,-0.484 0.48,-0.484 1.69,-0.242 1.22,0.242 2.43,0.242 1.46,-0.242 -0.97,0 -2.18,-0.243 -3.39,-0.243 -1.21,0 -2.43,0 -3.39,0 -2.18,0 -4.61,0 -6.79,0.243 -4.6,0.242 -8.96,0.484 -13.32,0.727 h 1.7 c -0.97,1.453 -6.3,0 -10.42,1.453 0.97,-0.242 1.21,-0.969 0.97,-0.726 -1.45,0.242 -2.91,0.484 -4.36,0.726 -1.45,0.243 -3.15,0.97 -4.6,1.212 -1.46,0.485 -3.4,0.727 -5.09,1.454 -1.94,0.727 -3.63,1.454 -5.81,2.423 l 0.96,-0.727 c -1.69,0.485 -3.87,1.212 -6.05,1.939 -2.18,0.969 -4.12,1.938 -5.81,2.665 -0.73,0.727 -2.67,1.696 -1.46,1.454 -5.57,1.696 -10.17,4.604 -14.53,7.511 -4.36,3.15 -8,6.543 -12.6,8.968 0.97,-0.73 2.18,-1.94 1.21,-1.46 -2.18,1.94 -4.36,3.88 -6.54,5.82 0.97,0 0.97,-0.49 2.67,-1.21 -0.73,0.97 -2.42,2.66 -3.88,4.12 2.67,-2.91 -0.72,-0.73 -2.18,0.24 0.24,0 0,0.48 0.24,0.48 -3.87,2.18 0.25,1.22 -4.84,5.09 v -0.48 c -1.45,1.69 -2.67,3.63 -4.12,5.57 -1.21,0.49 1.21,-2.18 0.97,-2.66 -2.18,2.9 -2.91,6.54 -5.57,8.23 0.48,-0.48 0.97,-1.21 1.45,-1.93 0.49,-0.73 0.97,-1.46 1.46,-2.19 -2.67,2.19 -2.91,2.43 -4.61,4.37 l 0.25,-0.25 -2.18,1.94 -0.49,0.49 -0.24,0.24 -0.24,0.24 -0.49,0.49 0.73,-0.49 c 0,0.49 -0.24,0.73 -0.49,1.21 0,0.25 -0.24,0.49 -0.48,0.49 -0.24,0 -0.48,0 -0.48,-0.24 -0.73,-0.25 -1.7,-0.49 -2.91,-0.97 -2.18,-0.73 -4.85,-1.7 -7.75,-1.7 5.81,0.24 0.97,-0.48 1.69,-0.97 -1.45,-0.48 -3.63,-1.21 -2.9,-1.21 -1.94,0 -3.39,-0.49 -5.33,-0.73 h -0.25 c -0.72,0 -2.18,0 -3.39,0.24 -0.24,-0.24 -2.9,0 -2.42,-0.48 -3.63,0.24 0.97,0.48 0.49,0.73 -2.91,0.48 -6.06,0.48 -9.69,0.72 -1.7,0 -3.64,0.25 -5.57,0.73 -0.97,0.24 -1.94,0.49 -2.91,0.73 -0.97,0.24 -1.7,0.48 -2.67,0.72 -0.96,0.25 -2.66,0.49 -3.387,0.97 -2.422,1.7 -2.18,4.12 -2.665,5.33 -0.242,1.46 -0.969,3.15 -2.18,5.58 -1.453,1.69 0.242,-1.94 0.242,-1.94 -1.937,2.66 -3.391,5.09 -4.36,8.24 0,-0.73 -0.484,-0.24 -0.969,0.72 -0.969,2.67 0.243,1.94 -1.211,5.09 0,-0.72 -0.242,-1.45 0,-2.9 -0.726,3.15 -1.211,6.3 -1.695,9.45 -0.485,0.72 -0.243,-1.94 -0.243,-3.15 -0.726,3.63 -1.453,9.45 -0.969,10.42 l 0.485,-2.19 c -0.242,1.22 -0.727,0.49 -0.727,-0.48 0,-3.15 0.969,-4.36 1.211,-4.6 l -0.242,2.18 c 1.696,-1.94 1.696,-8.97 3.391,-13.33 0,0.73 0.243,1.45 0.243,2.18 0.242,-1.45 0.484,-3.15 0.969,-4.6 0.726,-0.73 1.453,-1.22 0.726,0.97 1.696,-2.67 0.969,-2.67 2.665,-5.09 0.242,-0.25 0.242,0 0,0.24 l 1.453,-2.91 c -0.242,0.73 0.969,0 -0.242,1.46 1.695,-2.19 2.664,-4.37 2.907,-6.3 0.242,-1.7 0.969,-2.67 1.937,-2.91 0.243,0 0.243,0 0.485,0 l -0.242,0.24 c 0.726,-0.48 1.208,-0.48 1.698,-0.48 0.48,0 0.97,-0.25 1.21,-0.25 0.48,-0.24 0.48,-0.24 0.48,-0.48 0,-0.24 -0.48,-0.49 2.43,-1.46 1.45,0.25 2.9,0.73 4.36,0.97 l 0.72,-0.97 c 0.73,0 2.42,-0.24 2.18,0 2.91,-0.96 -0.48,-0.24 1.21,-0.96 3.88,0 10.9,-1.22 11.87,0.24 1.46,-0.49 -3.87,-0.49 0.49,-0.73 0.48,0.49 0.97,0.49 1.93,0.73 1.7,0 4.12,0 6.3,0.72 -1.21,0.49 -4.36,-0.48 -0.97,0.73 2.43,-0.73 6.54,1.94 9.45,2.67 0,-0.25 0.49,-0.25 1.45,0 0.49,0 0.97,0.24 1.46,0.48 0.24,0 0.48,0.24 0.72,0.24 0.25,0.25 0.25,0 0.49,-0.24 l 0.24,-0.48 c 0.97,-0.97 1.94,-1.94 2.91,-3.15 0.97,-0.97 1.94,-1.94 2.66,-3.15 0,0.24 1.94,-1.46 3.64,-3.88 0.96,-1.21 1.93,-2.42 2.9,-3.63 0.97,-1.22 2.18,-2.19 3.15,-2.91 v 0.24 c 0,-1.21 3.64,-4.36 6.3,-7.03 0.24,0.49 0,0.97 -1.45,2.43 l 2.42,-2.18 c 0.48,-0.73 1.21,-1.46 2.66,-2.91 l -0.24,0.97 c 3.39,-2.91 6.54,-6.303 11.39,-9.211 0,-0.727 -4.85,1.212 0,-2.665 0.48,0.242 0.96,0.484 -0.25,1.454 0.49,-0.243 1.46,-1.212 2.43,-1.696 l -1.7,1.938 c 2.18,-1.212 0.97,-1.211 2.66,-2.181 0.25,0.485 1.46,-0.484 1.46,0 -0.49,0.243 -1.7,0.727 -2.18,1.454 1.94,-1.211 4.6,-2.423 5.57,-2.423 -0.24,-0.242 -0.24,-0.485 1.21,-1.454 3.88,-2.181 1.7,-0.242 4.12,-1.211 0.73,-0.727 3.39,-1.697 3.15,-2.423 1.21,-0.485 1.45,-0.485 2.18,-0.485 1.94,-1.454 9.69,-4.604 7.02,-4.119 l -0.48,0.242 c 0,0 0.24,0 0.24,-0.242 1.7,-0.97 3.39,-1.454 5.33,-2.181 1.69,-0.727 3.63,-1.454 5.57,-1.696 1.94,-0.485 3.88,-0.485 5.81,-0.969 1.94,-0.485 3.64,-0.97 5.58,-1.454 v 0.242 c 4.36,-1.212 9.68,-1.696 12.83,-2.423 1.21,0 3.15,0.242 2.67,0.484 3.39,-0.242 3.87,-0.484 8.72,0 -3.39,0.243 1.21,0.485 -3.64,0.243 4.36,0.242 5.33,0.727 10.18,0.242 -0.97,0.242 0,0.485 1.21,0.727 1.21,0.242 2.91,0.485 4.12,0.485 l -3.15,-0.727 c 1.21,0 2.18,0.242 3.39,0.242 0.48,0 1.21,0 1.7,0.242 h 1.45 c -0.24,0.243 -0.73,0.485 -1.21,0.727 1.21,0 1.69,0.243 2.66,0.485 0.73,0.242 1.94,0.727 2.91,0.727 1.94,0.484 3.87,0.727 5.33,1.454 1.94,0.727 3.87,1.211 5.33,1.938 0.72,0.242 1.21,0.727 2.42,1.212 0.97,0.484 1.7,0.969 2.42,1.453 1.21,0.243 0.24,-0.242 -1.21,-0.969 -1.21,-0.484 -2.42,-1.454 -1.21,-1.211 2.18,0.969 4.12,1.938 5.33,2.907 1.21,0.97 2.18,1.939 2.66,2.424 2.18,1.696 3.39,2.423 4.61,2.907 1.21,0.727 2.66,1.212 4.6,3.393 -0.49,-0.727 -0.49,-1.697 3.15,0.969 2.9,2.908 2.9,4.361 0.72,2.665 -0.72,-0.727 -0.97,-0.969 -0.97,-1.211 -0.96,-0.727 -2.42,-1.939 -1.45,-0.485 l 0.49,0.242 c 1.45,1.454 5.32,5.578 4.11,5.088 2.43,2.18 1.21,0.73 -0.24,-1.21 3.39,4.12 5.57,6.06 8.72,10.66 -0.48,-0.73 -0.73,-1.7 0,-0.97 2.18,3.39 2.67,3.88 3.15,4.36 0.49,0.49 0.73,0.49 2.18,2.67 0.49,1.21 0.24,1.21 0.24,1.45 0,0 -0.24,0 0,0.24 0,0 0,0.25 0.25,0.49 0.24,0.24 0.24,0.48 0.48,0.97 l -0.24,-0.24 c 0.24,0.24 0.48,0.72 0.72,1.21 0.97,3.15 -0.48,0.97 -1.21,-0.24 1.21,2.18 1.94,4.36 2.43,6.3 0.48,1.93 0.72,3.63 1.21,5.08 -0.25,-0.72 -0.73,-1.69 -0.97,-2.42 0.48,1.45 0.97,2.67 1.21,3.88 l 0.24,-1.46 c 0.24,1.46 0.73,2.67 0.49,2.67 0.72,1.45 0.72,-1.45 1.93,1.45 0.25,1.94 1.46,6.06 0.73,6.79 -0.73,-6.3 -0.48,0.72 -1.7,-4.36 0.25,0.97 0.49,2.18 0.73,3.63 0,0.24 -0.24,-0.24 -0.24,-0.48 0,3.15 0.48,3.63 0.73,4.36 0.24,0.72 0.96,1.45 0.96,4.6 -0.48,-0.73 -0.72,1.46 -0.72,2.42 0,-2.42 0.72,-1.21 0.97,1.22 -0.49,4.12 0.24,4.36 0,6.54 0.24,-0.73 0.24,-1.7 0.24,-2.42 0.48,0.96 0.24,2.9 0,5.81 -0.24,0.24 0,-2.66 -0.24,-1.69 0.24,1.69 -0.25,3.39 -0.73,5.33 -0.73,1.93 -1.21,3.87 -1.7,6.05 -0.96,1.94 -0.72,0 -1.45,1.7 0,0.24 -0.24,0.73 -0.24,0.97 l 0.24,-0.73 c -0.24,0.24 -0.24,0.49 -0.24,0.73 v 0.24 0.24 c 0,0.25 -0.24,0.49 -0.24,0.49 -0.25,0.48 -0.25,0.73 -0.49,0.97 -0.24,0.72 -0.48,1.21 -0.97,1.69 -0.72,1.22 -1.21,2.18 -2.18,4.61 1.21,-0.97 1.21,-1.46 0,2.18 1.21,-2.67 2.18,-5.33 3.15,-8 -0.48,1.7 -0.97,3.64 -1.45,5.33 1.21,-2.42 1.94,-5.09 2.42,-6.54 -0.48,2.67 -0.48,2.42 0.24,1.21 -2.18,2.91 -2.42,6.79 -4.84,10.18 l -1.21,-0.73 c -1.7,2.43 -2.91,4.85 -4.61,7.27 -1.45,2.42 -3.14,5.09 -6.05,7.76 l 1.94,-1.7 c -0.25,1.21 -3.15,3.63 -5.09,5.33 -0.24,-0.48 -1.45,0.48 -2.42,0.73 0.24,0 -0.97,0.97 -2.18,1.94 -1.21,0.96 -2.42,1.93 -2.67,2.42 -1.21,0.48 -2.18,0.73 -3.39,1.21 -2.66,1.21 -4.6,1.94 -6.05,2.91 -0.73,0.48 -1.7,0.97 -2.67,1.69 -0.97,0.49 -1.94,0.97 -3.39,1.7 1.45,-1.21 -1.21,-0.48 2.42,-2.42 -1.94,0.72 -3.63,1.45 -3.63,1.69 -1.21,0.25 -5.09,2.67 -7.03,2.67 -0.72,0.48 -0.96,0.97 -3.14,1.69 -0.25,0 0,-0.24 0,-0.24 0,0.24 -3.4,1.21 -1.46,1.21 -6.54,0.25 -17.68,3.64 -23.49,2.91 -0.97,0.24 -2.18,0.24 -3.15,0.49 l -1.7,0.24 h -0.73 -0.48 -0.24 v 1.45 -1.45 c -2.91,0.24 -5.57,0.48 -7.75,0.73 0.24,-0.25 0,-0.25 0.72,-0.25 -5.81,0 -3.39,1.7 -9.93,1.7 -3.39,-0.49 3.39,-0.73 1.46,-0.73 -0.97,-1.45 -8,0.73 -12.36,0.24 l 0.97,-0.24 c -3.39,-0.24 -8.24,1.21 -13.56,1.46 0,0 0.24,-0.25 0,-0.25 -3.64,0.97 -10.9,1.94 -15.99,2.43 1.69,-0.73 2.42,-0.49 1.45,-0.97 -2.42,0.24 0.73,0.97 -3.87,1.21 -1.46,-0.24 -4.85,-0.49 -5.33,-1.21 h 4.36 c -2.18,-0.73 -5.82,0 -8.24,0 l 0.24,-0.49 c -6.78,0 -7.02,0.97 -14.29,0.73 l 0.73,0.24 c -4.12,0.73 -3.39,-0.72 -7.27,0 l -1.21,-0.97 c -2.66,0 -9.2,0.49 -14.05,0.25 2.67,-0.49 8.24,-0.49 11.87,-0.73 -2.66,-0.24 -8.96,-0.49 -10.17,0 0.97,0 2.42,-0.24 3.39,0 -3.15,0.48 -7.51,0.73 -12.84,0 1.21,-1.7 -13.57,-1.94 -17.2,-3.64 -9.45,0 -18.408,-1.45 -29.066,-2.18 3.633,1.7 -3.149,-0.24 -2.665,1.46 -2.422,0 -3.391,-0.25 -3.633,-0.25 l -7.51,-1.69 c -1.695,-0.73 2.423,0 2.18,-0.49 -5.329,-0.72 -2.18,-0.97 -5.571,-1.69 0.727,0.48 -1.938,0.72 -5.087,-0.24 1.454,0.48 2.665,0.96 4.118,1.21 -3.875,0 -5.329,-0.73 -7.025,-1.46 -1.453,-0.72 -3.148,-1.21 -6.782,-1.94 l 2.422,0.25 c -3.875,-0.49 -14.049,-3.88 -17.925,-3.88 -0.484,-0.48 -1.211,-0.97 0.243,-0.73 -4.361,-1.45 -9.205,-3.15 -13.323,-5.33 -4.118,-2.18 -7.994,-5.09 -9.932,-7.99 l 0.727,0.24 c -1.211,-1.21 -2.422,-1.7 -2.907,-3.64 0.243,0 0.727,0.25 0.242,-0.24 -0.242,-0.24 -0.726,-0.97 -1.211,-1.94 -0.484,-0.97 -0.484,-2.18 -0.484,-3.39 0.242,0.73 0.242,1.21 0.484,1.7 0,-1.94 0.243,-3.88 0.243,-6.06 0,-0.97 0,-1.7 0,-2.67 0,-0.72 0,-1.69 0,-2.42 0,-1.7 0,-3.39 -0.243,-5.33 0,-0.73 -0.242,-1.7 -0.242,-2.42 0,-0.49 0,-0.73 0,-1.21 0,-0.49 0.242,-0.73 0.242,-1.22 1.454,0.25 2.18,-7.75 2.423,-11.38 h 0.242 c 0,-2.43 0.484,-4.85 0.484,-7.03 0.243,-2.43 0.485,-4.61 0.727,-6.79 0.485,-4.36 0.969,-8.72 1.696,-13.81 2.422,-5.81 5.087,-20.35 8.478,-29.8 -0.485,1.45 -0.727,-0.49 -0.485,-2.18 0.727,-2.18 0.969,-6.545 1.938,-5.818 l -0.242,0.726 c 1.453,-1.453 2.422,-6.057 3.633,-9.692 l -0.969,-0.969 c 2.181,-4.362 4.118,-10.419 6.056,-15.993 1.938,-5.573 3.876,-10.419 5.572,-12.6 0.484,-2.423 1.695,-5.088 2.18,-7.511 l 0.484,0.242 c 1.211,-3.15 2.18,-5.331 2.907,-7.996 0.969,-2.665 1.453,-5.088 2.907,-8.965 l -0.243,1.696 c 1.696,-4.12 0.243,-6.058 1.938,-9.935 l 1.454,-0.727 c 3.391,-7.269 7.993,-13.812 11.384,-20.838 0,0.242 0.243,0.484 -0.484,1.696 1.938,-3.15 8.478,-11.631 6.54,-11.147 0.727,0.485 5.087,-6.542 7.025,-10.661 l 0.242,0.969 c 1.211,-3.635 0.969,-4.119 3.391,-8.238 0.727,-0.97 0.969,-0.485 0,0.727 1.211,-1.454 1.454,-2.181 1.938,-2.908 0.242,-0.727 0.969,-1.696 2.665,-3.15 l -0.969,1.696 c 2.664,-2.908 2.422,-2.908 3.633,-4.846 1.696,-1.939 6.056,-4.846 7.025,-4.846 0.242,-0.727 1.696,-2.423 3.633,-3.877 0.482,0 -0.242,0.727 -0.484,0.969 5.816,-3.877 7.506,-7.027 11.866,-9.208 0.25,0 0.49,0 0.97,-0.242 -4.36,3.392 -7.99,6.058 -7.51,5.573 0.49,0.485 3.88,-2.181 1.7,0.727 2.42,-2.665 6.78,-7.027 10.41,-9.45 0.25,0 0.49,-0.242 0.49,-0.242 l -0.24,0.242 c 0.72,-0.485 1.45,-1.212 2.18,-1.696 1.21,-0.727 1.93,-1.212 2.9,-1.939 0.73,0.243 4.36,-2.665 6.06,-3.634 -0.49,-0.485 1.94,-1.939 -0.73,-0.97 0.24,-0.242 -0.24,0.243 -1.45,1.212 -0.24,0.242 -0.49,0.485 -0.73,0.485 0,0 0,-0.001 0,-0.243 -1.21,0.727 -2.66,1.939 -4.6,3.15 1.21,-1.211 2.66,-2.665 4.84,-3.634 0.73,-0.97 1.46,-1.939 1.94,-2.666 3.15,-0.969 8.24,-3.392 9.21,-3.15 2.9,-1.696 6.3,-3.634 9.44,-5.088 3.15,-1.454 6.3,-2.666 8.24,-3.635 1.7,-0.485 2.18,0 2.91,0.242 -0.97,0.243 -2.18,0.485 -2.67,0.727 1.7,-0.484 4.36,-0.969 6.79,-0.969 2.42,0 4.11,0.242 4.84,0 2.18,0.969 1.45,0.969 0.97,0.969 -0.24,0 -0.49,0 -0.24,0 0.24,0.243 0.97,0.243 2.18,0.97 h -0.73 c 1.45,0.726 2.18,1.453 2.91,2.423 0.97,0.969 1.69,1.938 2.42,3.15 1.45,2.18 3.15,4.361 4.6,6.784 2.91,4.604 5.81,9.45 8.24,16.477 -0.25,-0.969 -0.49,-1.454 -0.49,-1.696 1.7,3.877 3.39,7.512 5.09,11.389 0.73,1.938 1.7,3.877 2.18,5.815 0.48,1.939 0.97,3.877 0.73,5.573 -0.49,1.454 -1.7,3.15 -3.4,4.119 -1.69,1.212 -3.39,1.939 -5.32,2.424 -3.88,1.211 -8,1.453 -11.87,1.453 -4.61,-0.242 -5.09,0.243 -7.75,0.485 l -0.97,-0.727 c -1.7,0 -3.15,0.242 -4.85,0 -3.39,-0.242 -6.05,-1.696 -8.72,-3.15 -2.66,-1.696 -5.33,-3.392 -7.99,-6.058 l 0.24,1.212 c -0.97,-1.212 -1.94,-3.15 -2.18,-5.089 -0.24,-1.938 0,-3.392 0.24,-2.907 0,-0.243 -0.48,-0.97 0.24,-1.939 h 0.49 c 0.48,-2.181 1.69,-4.119 3.63,-5.573 1.21,-0.727 1.94,-0.727 2.18,-0.485 0.24,0 0.24,0.243 0.49,0.485 0.24,0.485 0.48,0.242 4.36,0.242 1.45,0 3.39,0 5.08,0 1.7,0 2.91,0.243 2.43,0 -1.22,-0.484 -2.91,-1.211 -3.15,-1.453 0.97,0.242 1.93,0.242 2.9,0.484 0.49,-0.484 1.22,-0.727 1.22,-1.454 0,-0.484 -1.22,-1.696 -5.09,-2.665 -1.94,0 -3.88,0 -5.57,0.485 -0.73,-0.243 -1.21,-0.243 -1.94,-0.243 1.69,-0.242 3.15,-0.484 4.84,-0.484 -2.66,-0.485 -4.6,0.242 -6.29,0.969 -0.49,0 -1.46,0 -2.67,0.484 -1.69,1.212 -3.15,2.908 -4.12,4.847 -0.72,0.484 0.97,-2.908 -1.69,0.484 -0.49,1.454 0,0.969 0.48,0.727 0.49,-0.242 0.49,-0.484 0,1.696 -0.72,1.212 -0.97,1.697 -1.21,2.181 -0.24,0.485 -0.24,1.212 0,2.908 -0.24,0.484 -0.48,-0.242 -0.48,-1.696 0,1.454 0.24,3.634 0.72,5.33 0.49,1.697 1.46,3.15 2.18,3.635 0.49,1.454 2.43,3.392 3.88,4.604 1.69,1.212 2.91,1.938 2.66,2.423 0.97,0.242 4.61,1.454 7.03,1.939 -2.42,-0.243 -0.24,0.726 2.42,1.453 2.66,0.727 5.57,1.212 5.09,1.697 1.69,-0.243 4.6,0 7.99,0 3.39,0 6.78,0 9.69,-0.727 -0.24,0.242 -0.97,0.484 -1.45,0.484 3.39,-0.242 4.36,-0.242 6.54,-0.484 0.24,-0.97 5.33,-2.666 7.51,-4.604 1.93,-0.727 1.69,-0.243 0.97,0.727 -0.73,0.727 -1.94,1.696 -0.97,1.696 -0.25,-0.242 1.45,-1.212 2.66,-2.666 1.45,-1.211 2.42,-2.907 1.45,-2.423 0.73,-0.484 1.22,-1.211 1.46,-1.454 0.24,-0.484 0.48,-0.726 0.72,-0.969 0.25,-0.484 0.49,-0.969 1.22,-1.938 -0.49,-0.485 -0.49,-1.454 -0.49,-2.423 0,-1.212 -0.24,-2.423 -0.97,-3.635 -0.24,-2.181 -0.24,-2.665 -0.24,-2.908 0,-0.484 0,-0.727 -1.21,-2.907 -0.24,-1.212 0,-0.727 0.48,0 1.46,1.696 2.18,2.665 2.18,2.665 z m -84.29,-22.535 c 0.72,-0.484 1.45,-0.969 1.93,-1.454 -0.72,0.485 -1.21,0.97 -1.93,1.454 z m -7.51,5.816 c 0.97,-0.727 1.94,-1.454 3.15,-2.423 0.48,0 0.24,0.484 -0.49,0.969 0.24,-0.485 -1.45,0.727 -2.66,1.454 z m 18.65,-7.754 c -1.21,0.969 -1.7,0.969 -1.94,0.969 0.49,-0.485 1.21,-0.969 1.94,-1.454 0,0 0,0 0,-0.242 0.24,0.242 0,0.485 0,0.727 z"
           fill="#6a4d93"
           id="path958" />
        <path
           d="m 1027.78,842.993 c 0.25,-0.242 0.25,-0.242 0.49,-0.485 -0.24,0.243 -0.49,0.243 -0.73,0.243 0,0.242 -0.24,0.242 -0.24,0.484 0,0 0.24,-0.242 0.48,-0.242 z"
           fill="#6a4d93"
           id="path960" />
        <path
           d="m 1109.42,984.017 c 0.24,-0.242 0,0 0,0 z"
           fill="#6a4d93"
           id="path962" />
        <path
           d="m 937.433,959.544 h 0.242 v -0.97 z"
           fill="#6a4d93"
           id="path964" />
        <path
           d="m 1065.33,1009.7 c 0,0 -0.24,0 -0.73,0.24 0.25,0 0.49,0 0.73,-0.24 z"
           fill="#6a4d93"
           id="path966" />
        <path
           d="m 1050.31,1026.18 -2.18,2.18 c 0.97,-0.97 1.7,-1.7 2.18,-2.18 z"
           fill="#6a4d93"
           id="path968" />
        <path
           d="m 1037.47,1026.66 c -0.24,0 -0.24,0.25 -0.48,0.25 z"
           fill="#6a4d93"
           id="path970" />
        <path
           d="m 1204.61,990.075 c 0.73,0.484 1.46,0.969 2.18,1.454 -0.97,-0.97 -1.93,-1.697 -2.18,-1.454 z"
           fill="#6a4d93"
           id="path972" />
        <path
           d="m 1183.05,1127.95 c -0.24,0 -0.24,0 -0.48,0.24 z"
           fill="#6a4d93"
           id="path974" />
        <path
           d="m 1209.7,993.952 c -0.97,-0.97 -1.94,-1.939 -2.91,-2.423 0.97,0.727 1.94,1.696 2.91,2.423 z"
           fill="#6a4d93"
           id="path976" />
        <path
           d="m 984.426,1063.01 -0.242,0.73 z"
           fill="#6a4d93"
           id="path978" />
        <path
           d="m 995.084,1035.14 c -0.727,1.22 -2.422,3.15 -3.391,5.33 v 0.25 c 0.242,-1.21 3.149,-4.12 3.391,-5.58 z"
           fill="#6a4d93"
           id="path980" />
        <path
           d="m 1021.49,1028.12 c -1.94,0 -3.88,0 -5.57,0.24 0.96,0.24 2.42,0.48 -0.25,0.73 7.03,0.24 -1.45,-0.49 5.82,-0.97 z"
           fill="#6a4d93"
           id="path982" />
        <path
           d="m 1038.69,1030.3 c -2.91,-0.73 0,0.48 -0.25,0.48 1.7,0.49 2.18,0.49 0.25,-0.48 z"
           fill="#6a4d93"
           id="path984" />
        <path
           d="m 1148.17,976.263 -0.24,0.727 c 2.42,-0.243 0,-0.243 0.24,-0.727 z"
           fill="#6a4d93"
           id="path986" />
        <path
           d="m 1173.12,974.325 c -0.72,-0.243 -1.69,-0.485 -2.66,-0.727 -0.24,0.242 -0.73,0.242 -0.97,0.484 0.97,0.243 2.18,0 3.63,0.243 z"
           fill="#6a4d93"
           id="path988" />
        <path
           d="m 1185.48,983.29 -0.97,-0.242 c 1.21,0.484 2.42,0.727 3.39,1.211 -0.97,-0.242 -1.7,-0.484 -2.42,-0.969 z"
           fill="#6a4d93"
           id="path990" />
        <path
           d="m 1157.14,1127.22 0.72,0.73 c 1.7,-0.49 1.94,-1.46 -0.72,-0.73 z"
           fill="#6a4d93"
           id="path992" />
        <path
           d="m 1064.36,1133.04 c -0.97,-0.49 -3.63,-0.73 -5.33,-0.49 2.18,0.24 4.36,0.49 5.33,0.49 z"
           fill="#6a4d93"
           id="path994" />
        <path
           d="m 934.284,984.502 -0.242,1.938 0.968,-3.392 z"
           fill="#6a4d93"
           id="path996" />
        <path
           d="m 1015.43,910.597 c -0.24,-0.242 -0.73,-0.242 -0.73,0 l 0.73,0.485 z"
           fill="#6a4d93"
           id="path998" />
        <path
           d="m 1013.49,912.051 c 0.25,0.485 0.97,0.97 1.7,0.97 -0.73,-0.485 -0.24,-0.485 -1.21,-0.97 0,-0.242 0.48,-0.484 0.72,-0.242 -0.24,-0.242 0.25,-0.485 -0.24,-0.727 -0.72,0.242 -0.72,0.727 -0.48,1.212 -0.24,0 -0.49,-0.243 -0.49,-0.243 z"
           fill="#6a4d93"
           id="path1000" />
        <path
           d="m 1007.44,937.979 -0.24,0.484 c 0.24,0 0.24,-0.242 0.24,-0.484 z"
           fill="#6a4d93"
           id="path1002" />
        <path
           d="m 1014.46,916.17 c 0,0 0,-0.242 -0.24,-0.242 0,0 0,0 0.24,0.242 z"
           fill="#6a4d93"
           id="path1004" />
        <path
           d="m 1007.44,930.467 c 0,-0.242 -0.24,-0.242 -0.24,-0.242 z"
           fill="#6a4d93"
           id="path1006" />
        <path
           d="m 1008.41,925.136 c 0,0 0.48,0.242 0.97,0.484 -0.25,-0.242 -0.49,-0.242 -0.49,-0.484 -0.24,0 -0.24,0 -0.48,0 z"
           fill="#6a4d93"
           id="path1008" />
        <path
           d="m 984.184,1091.12 h -0.243 l -0.242,-0.24 z"
           fill="#6a4d93"
           id="path1010" />
        <path
           d="m 1004.77,1008.49 c 0.73,-0.24 0.49,0.97 1.46,0.48 -0.25,-0.24 -0.97,-0.96 -1.46,-0.48 z"
           fill="#6a4d93"
           id="path1012" />
        <path
           d="m 1007.92,978.444 c 0,0 -0.24,0.242 0,0.242 0,0 0,0 0,-0.242 z"
           fill="#6a4d93"
           id="path1014" />
        <path
           d="m 987.575,1070.28 c -0.242,0 -0.485,0.24 -0.727,0.24 0.727,0 0.969,0.49 0.727,-0.24 z"
           fill="#6a4d93"
           id="path1016" />
        <path
           d="m 1013.98,915.928 c 0.24,0 0.24,0.242 0.24,0.242 v -0.242 c 0,0 0,0 -0.24,0 z"
           fill="#6a4d93"
           id="path1018" />
        <path
           d="m 1013.25,981.836 c -0.24,0.243 -0.48,0.243 -0.48,0.485 0,0 0,0 0.24,0 z"
           fill="#6a4d93"
           id="path1020" />
        <path
           d="m 988.786,1075.37 c 0,-0.73 -0.968,-0.25 -1.453,-0.49 -0.242,-0.97 0.727,-0.48 1.211,-0.72 -0.242,-0.49 -1.211,-0.97 -0.969,-1.22 0.243,0 0.243,0 0.485,0 -0.727,-0.48 0,-1.69 -0.969,-2.18 h 0.242 c -0.484,0 -0.969,0 -1.211,0 0,-0.24 -0.485,-0.48 0,-0.72 0,0.24 0.242,0.24 0.484,0.24 l -0.242,-0.24 c 0.969,-0.25 0.242,0.48 0.969,0.48 -0.242,-0.48 -0.969,-1.45 -0.484,-1.7 0.726,0 0.242,0.97 0.968,0.49 -0.242,0.24 -0.242,0.48 -0.484,0.73 1.453,-0.49 0,0.48 1.211,0 0.242,-0.73 -0.242,-0.73 0,-1.7 -0.484,-0.24 -0.726,0 -0.969,-0.48 -0.484,-1.7 2.18,-0.73 1.454,-1.94 -0.485,-0.49 -1.454,-0.73 -0.727,-1.46 l 0.969,0.49 c 0.242,-0.97 -1.211,-0.97 -0.242,-1.7 0.242,0.24 0.242,0.73 0.242,0.73 0.969,-0.49 -0.485,-0.49 -0.242,-1.21 h 0.726 c 0,-0.97 -0.242,-2.43 -0.242,-3.64 0.242,0 0.485,0.49 0.727,0.24 0,-1.45 0.969,-2.66 1.938,-3.87 l -0.485,-0.73 h 0.485 c 0.484,-0.48 -0.485,-0.24 -0.485,-0.48 0,-0.25 0.485,-0.25 0.727,0 -0.242,-1.22 -0.242,-3.15 0.969,-3.88 l 0.242,0.24 c 0.485,-0.73 -0.969,-1.45 -0.242,-1.94 v 0.25 c 0.969,-1.46 0.969,-3.64 2.422,-4.12 -0.727,-0.73 1.211,-1.22 0,-1.94 1.211,-0.73 1.211,-0.24 2.422,-1.7 0.243,-0.48 -0.726,-0.73 -0.726,-1.21 l 0.726,0.24 c -0.242,-0.24 -0.242,-0.48 -0.484,-0.72 h 0.969 v -0.49 c 0,0 -0.485,0.24 -0.727,0 0,-0.73 1.211,-1.21 1.454,-0.97 0,-0.48 0,-0.97 0.242,-1.69 0.242,0.24 0.242,0.48 0.242,0.72 -0.242,-0.97 0.731,0.24 0.481,-0.72 -0.24,0 -0.24,-0.25 -0.481,-0.49 0.481,0 0.971,-0.73 1.211,-1.45 l 0.24,0.48 c 0.73,-0.97 1.21,-2.18 1.94,-3.15 -0.48,0.24 -1.21,-0.24 -0.97,-0.73 l 0.73,0.25 c -0.24,-0.49 -0.49,0.24 -0.73,-0.73 0.49,-0.24 0.97,0.24 0.97,0.73 l 0.24,-0.73 c 0.24,0 0.24,0.24 0.49,0.48 -0.25,-0.48 1.21,-0.48 0.72,-1.21 h 0.25 c 0.72,-1.21 0.96,-1.94 1.45,-2.9 -0.49,-0.49 -0.24,-0.73 -0.49,-1.22 0.49,-0.48 1.7,-1.21 1.94,-2.42 0,-0.97 -0.48,-0.48 -0.72,-0.97 0.72,0.24 0.96,-0.97 1.21,-0.24 0.24,-1.45 0.24,-1.7 0,-3.39 -0.25,0.24 -0.49,0.24 -0.73,0.24 0,-0.24 0.24,-0.49 0.73,-0.49 -0.25,-0.96 0.24,-1.93 0.72,-2.66 0.49,-0.73 0.97,-1.21 0.49,-1.94 -0.24,-0.48 -0.24,-0.97 -0.24,-1.45 0.24,-0.49 0.24,0.48 0.72,0.24 -0.72,-1.7 0.73,-2.18 0.49,-3.64 0.97,-0.24 1.21,-1.21 1.21,-2.42 0,-0.97 0,-1.69 0.48,-2.42 h -0.48 c -0.49,-0.24 0.24,-0.49 0.48,-0.49 -0.24,0 -0.48,0.25 -0.72,0 0,-1.45 0.24,-2.66 0.72,-4.115 l 0.73,-2.181 c 0.24,-0.727 0.48,-1.212 0.73,-2.423 0.24,-1.212 -2.18,-0.727 -1.21,-2.181 l 0.72,0.242 c -0.48,-0.969 -0.48,-2.181 -0.48,-2.665 0,-0.727 0.48,-1.696 0.24,-2.908 0.24,0.242 0.48,0.242 0.24,0.485 0.73,-0.243 0.24,-1.939 -0.24,-1.939 0,-0.242 0.48,0 0.73,-0.242 0.24,-0.485 -0.73,-1.212 -0.25,-1.212 l 0.25,0.243 c -0.25,-0.243 0,-1.212 -0.49,-0.97 0.24,-0.726 -0.24,-1.453 0,-2.18 -0.72,-0.485 0.24,-1.212 -0.72,-1.454 1.21,0 0.96,-1.454 0.48,-1.939 0.24,0.243 0.24,-0.484 0.73,-0.242 0,-0.485 -0.25,-0.969 -0.73,-0.969 1.21,-0.969 -0.97,-2.181 0.73,-2.666 -0.49,-1.696 -0.97,-3.15 -1.21,-4.603 1.21,0 0,1.696 1.21,1.696 -0.49,-1.454 -1.46,-2.181 -1.21,-3.635 0.24,-0.242 0.48,0.242 0.72,0.242 -0.48,-1.453 0,-2.665 -0.48,-3.877 l 0.24,0.243 c 0,-0.243 0.24,-0.485 -0.24,-0.485 l 0.24,0.242 c -0.73,0.485 -1.45,-0.969 -1.94,-0.969 1.46,0.485 0.24,-1.211 2.18,-0.484 0,-0.243 -0.24,-0.485 -0.72,-0.243 0,-0.242 0.24,-0.242 0.72,0 -0.24,-0.969 -0.72,-0.484 -0.72,-1.454 0.24,0 0.24,0.243 0.72,0.243 -0.48,-0.485 -0.97,-0.727 -0.72,-1.454 0.24,0 0.24,0 0.24,0.242 0,-1.211 -1.21,-1.938 -0.73,-3.392 0.97,0.484 0.24,-0.485 1.21,-0.727 l -0.24,-0.727 -0.48,0.485 c 0,-0.727 -0.73,-1.212 -0.73,-1.696 l 0.48,0.484 -0.48,-1.211 -0.24,0.727 c -0.49,-0.485 -1.21,0.242 -0.97,-0.485 0.24,0.242 0,-0.727 0.48,-0.969 -0.24,-0.243 -0.72,-0.485 -0.48,-0.727 0.24,0 0.97,0.242 1.21,0.242 -0.73,-0.242 0,-1.696 -0.73,-1.938 0,0 0,0 -0.24,0 h 0.24 c 0.24,0 0.49,0 0.49,0 -0.25,0 -0.49,-0.243 -0.73,-0.243 0.24,-0.242 0.24,-0.484 0.48,-0.484 -0.24,-0.97 -0.96,0.484 -0.96,-0.485 0,0 0.24,0 0.24,0.242 -0.24,-1.211 -0.97,-1.696 -0.73,-2.423 0.97,-0.242 0.24,0.485 0.97,0.242 -0.24,-0.242 -0.24,-0.969 -0.48,-1.696 -0.25,-0.727 -0.25,-1.453 -0.25,-2.18 v 0.242 c -1.21,-0.242 0.73,-0.969 0,-1.696 0,0.242 0.73,0.242 0.49,0.242 0.24,-0.969 -0.49,-1.938 -0.73,-3.15 l 0.24,0.242 c 0,-0.242 0,-0.242 0.25,-0.484 v -0.243 -0.242 h -1.7 0.24 0.73 0.24 c 0.24,0 0,0 0,0 v -0.242 -0.243 c 0,-0.242 0,-0.242 0,-0.484 -0.24,-0.242 -0.24,-0.485 -0.73,-0.242 1.94,-1.454 -0.72,-3.393 0.97,-4.604 0,0.242 0.25,0.484 0.25,0.242 v -1.212 c -0.49,0 -0.25,0 -0.73,0.243 -0.24,-0.243 -0.49,-0.727 -0.49,-0.969 0.25,0.726 0.97,0.242 1.22,0 -0.25,0 -0.25,0 -0.49,0 1.21,-0.485 -1.21,-0.243 -0.24,-1.212 h 0.24 c 0,-0.485 -0.48,-0.727 -0.24,-1.212 0.73,0 0.24,0.485 0.73,0.485 0,-0.485 -0.97,-1.212 -0.25,-1.696 0.25,0.242 0,0.484 0.25,0.727 0.72,-0.243 0.72,-0.485 0.96,-0.727 l 0.49,-0.727 -0.24,0.242 c -1.46,-0.969 0,-1.454 -0.97,-2.423 0.72,0.969 0.48,0.242 1.21,0.485 0.24,-0.243 0.48,-0.485 0.73,-0.243 -0.49,-0.484 0.48,-0.484 0,-1.211 0.24,0 0,-0.485 0.72,-0.242 0,-0.485 -0.48,0 -0.72,0 -0.73,-0.97 1.45,-1.697 0.48,-3.15 -0.24,-1.212 -0.97,-1.454 -1.21,-2.423 0.48,-0.243 0.73,0.484 0.73,0.484 0.48,-0.484 0.48,-0.727 0.24,-1.454 0.24,0.243 0.48,0 0.72,0 0,-0.484 -0.72,-0.484 -0.24,-0.969 0.24,0.242 0.73,0.242 0.73,0.727 0,-0.485 -0.49,-0.969 -0.49,-1.454 0.49,0 0.49,0.485 0.73,0.727 0,-0.485 0,-1.454 -0.73,-1.696 l -0.24,0.242 c 0,-0.242 0.49,0 0.73,0.243 0.48,0.484 -0.49,0.484 -0.73,0.484 v -0.484 c -1.45,0 0,1.453 -0.24,1.938 l -0.97,-0.485 0.73,0.97 c -0.24,0 -0.97,0 -0.97,-0.243 -0.49,0.485 0.24,0.485 -0.49,0.727 h -0.24 l 0.24,0.485 c -0.24,-0.242 -0.72,0 -0.48,-0.242 -0.73,0.726 0.48,1.453 -0.48,1.696 0,1.211 0.72,0.242 1.45,1.454 l -1.94,0.242 0.73,0.242 c 0,0 -0.24,0.242 -0.49,0.242 0.49,0.485 0.25,0 0.73,0.243 -0.73,0.484 0,1.696 -1.21,1.454 0.48,0.242 0.48,-0.485 0.73,0.242 -1.22,0 0,0.727 -0.73,1.211 -0.49,-0.242 -0.24,-0.726 -0.73,-0.242 0.97,0.485 -0.48,0.969 -0.24,1.454 0.97,0.242 0.24,0.969 0.24,1.939 -0.24,0 -0.73,1.453 -1.21,1.938 h -0.24 c 0.72,0.242 0.48,0.969 0.72,1.696 -0.48,0 -0.72,-0.242 -0.96,-0.484 v 0.484 c 0.24,0.242 0.48,0.242 0.48,0.727 l -0.73,-0.242 c 0,0.727 0.49,1.454 0,2.423 0.73,0 1.7,-0.485 2.18,0.484 -0.24,0 -0.97,0 -0.97,-0.242 0,0 0.25,0.242 0,0.485 l -0.48,-0.485 c -0.24,0.485 0.48,0.242 0.48,0.485 -0.48,0 -0.24,0.242 -0.72,0.242 0,0 0.24,-0.242 0,-0.485 0,0.243 -0.49,0.727 -0.73,0.97 0.24,0 0.73,0 0.73,0.242 0,0.727 -0.49,0.242 -0.97,0.485 0.24,0.242 0,0.727 0.73,0.727 0,0.242 -0.25,0.242 -0.49,0.242 0.24,0.485 0,1.696 0.73,1.211 0.72,1.212 -0.24,2.424 0,3.635 h -0.24 c 0.24,0.727 0,1.454 0.48,1.939 0,0.242 -0.48,0.484 -0.73,0.242 0.25,0.484 0.49,0.484 0,1.211 -0.24,-0.484 -0.48,0.243 -0.24,-0.484 -0.24,0.727 -0.73,0.727 0,1.696 -0.48,-0.485 -0.73,0.727 -0.48,1.211 0,-0.242 0.24,-0.484 0.48,-0.727 0,0.485 0,0.97 0.24,1.454 -0.24,0 -0.48,0 -0.72,0 -0.25,0.97 0.24,1.454 0.72,1.697 0.49,0.242 0.73,0.726 0.73,0.969 0,0 -0.24,0.242 -0.48,0.242 0.48,0.242 0.48,-0.485 0.96,-0.242 0,0.242 -0.24,0.484 -0.72,0.484 -0.24,0.243 -0.73,0.485 -0.73,0.485 -0.48,1.454 1.21,1.454 0.97,2.423 0.24,-0.242 0.97,-0.485 1.45,0.242 0,0.727 -0.97,0.97 -1.21,0.727 0,-0.242 0,-0.242 0,-0.242 -0.24,-0.242 -0.24,-0.485 -0.48,0 h 0.24 c -0.24,0.485 0,1.212 -0.48,0.969 0.24,0.485 0.48,0 0.48,-0.242 -0.24,0.727 0.24,1.212 0,1.696 0.24,0 0.48,-0.242 0.48,-0.242 -0.24,0.969 0.49,0.484 0.73,1.211 -0.48,0.485 -0.97,-0.242 -0.73,0.727 -0.24,0.485 -0.72,0 -0.96,0 0.48,0.727 -0.49,1.454 -0.49,1.939 l -0.24,-0.485 c 0.24,0.242 0.24,0.485 0.24,0.727 l 0.49,-0.242 c 0,0.242 0,0.484 -0.25,0.484 0.49,0.243 0.97,-0.242 1.46,0.243 -0.25,0.242 0.24,0.969 -0.49,0.969 0.24,-0.969 -0.72,0 -0.97,-0.727 0,0.242 0,0.242 0,0.485 h -0.24 c -0.73,0.969 0.97,0.484 0.73,1.453 -0.49,-0.242 -0.73,0.243 -0.73,0.485 0,-0.485 0.73,-0.242 0.97,0.242 -0.24,0.727 0.24,0.727 0.24,0.97 l 0.24,-0.485 c 0.49,0.242 0.49,0.485 0.49,0.969 -0.24,0 -0.24,-0.484 -0.49,-0.242 0.73,0.485 -0.72,1.211 -0.24,1.696 -0.24,0.242 -0.72,0 -0.97,0.242 0.49,0.727 -0.48,0.727 -0.24,1.697 0.49,-0.243 0.49,-0.243 0.97,0.242 l -0.48,-1.212 0.72,0.97 c 0,-0.485 -0.48,-0.727 -0.24,-0.97 0.48,0.485 0.24,0.243 0.73,0.243 -0.97,0.484 0.48,0.969 0,1.696 h -1.46 c -0.72,0.969 0.73,1.696 0.49,2.907 l 0.24,-0.484 c 0.48,0.242 0,0.727 0.24,1.211 -0.48,0 -0.72,0.243 -0.97,0.485 0.25,0 0,0.969 0.97,0.969 l -0.72,0.485 c -0.25,0.969 1.45,1.211 1.21,2.181 -0.49,-0.243 -0.97,0.242 -1.21,-0.485 0,0.242 0,0.485 0.24,0.727 -0.24,0.242 0.72,0.969 0.24,1.212 0.24,0.242 0.73,0.242 0.73,0.484 h -0.25 c 0.25,0 0.25,0.485 0.97,0.243 -1.45,0.969 0,2.665 -1.21,3.634 0.24,0.727 0.24,1.454 0.24,2.181 -0.24,0 -0.24,0 -0.24,-0.242 -0.48,0.969 1.46,0.484 0.97,1.453 -0.73,0.485 -0.48,-0.484 -0.73,-0.242 -1.45,0 0.25,0.969 -0.96,1.454 v -0.242 c -0.49,0.242 0.24,1.211 0,2.18 h -0.25 c 0.73,0.727 0.97,1.939 1.21,2.908 -0.72,-0.242 -0.24,-0.242 -0.96,-0.242 0,0.484 0.96,-0.242 1.21,0.484 -0.25,0.243 -0.49,0.727 -1.21,0.97 v -0.727 c -0.73,0.484 0,0.969 0,1.211 h -0.49 c 0.24,0.97 1.21,0.97 0.97,1.939 h 0.24 c 0.97,0.727 -0.48,0.484 0,1.211 h -0.97 c 0.25,0.485 0.73,1.455 0.73,2.185 -0.73,-0.49 -0.97,-1.458 -1.21,-1.942 0,0.484 0,1.452 0.24,1.692 0,-0.24 -0.24,-0.48 0,-0.48 0.73,0.48 0.97,1.21 0.73,1.94 -1.94,-0.24 -0.73,1.94 -2.18,2.42 0.48,1.45 -0.73,2.91 -0.73,4.12 1.45,-0.24 0,0.48 1.45,0.73 0,0.48 0,0.48 -0.24,0.48 l -1.21,0.73 c -0.48,0.24 -0.24,-0.49 -0.48,-0.49 -0.25,0.73 -0.73,0.25 -1.21,0.49 0.48,0 0.72,0.48 0.24,0.97 l 0.72,-0.49 c 0.49,1.21 -1.45,0.73 -0.96,1.94 l -0.25,-0.48 c 0,0.72 -0.72,2.42 0.49,3.39 -0.24,0 -0.73,0.24 -0.73,-0.24 -0.48,1.69 0.97,3.39 0,4.36 l -0.24,-0.24 c 0,0.24 0.48,0.48 0.24,0.72 -0.24,0 -0.24,-0.24 -0.48,0 0,0.25 0.48,0.73 0.24,0.97 l -0.24,-0.24 c -0.73,0.97 0.48,1.94 0.24,2.91 -0.97,-0.49 -1.7,0.24 -2.181,0.48 -0.969,1.21 -0.727,2.67 -1.211,4.12 -1.453,0 -2.18,2.18 -3.634,3.15 0.243,0 0.727,0.49 0.485,0.73 -0.485,0.24 0,1.21 -0.727,0.73 -0.969,-0.25 -1.211,0.48 -1.453,0.96 l 0.969,0.73 c -1.211,0.24 -1.696,1.21 -1.938,2.18 -0.242,0.97 -0.485,1.94 -1.211,1.94 0,0.24 0,0.49 0,0.73 0,0.24 0,0.24 0.242,0.48 l -0.727,-0.24 c -0.484,0.73 -0.726,0.97 -1.211,2.18 l -0.242,-0.48 c -0.485,0.72 1.211,1.69 0.969,2.42 l -0.969,-0.24 c -0.242,0.24 -0.242,0.72 -0.485,0.97 l -0.484,0.72 c -0.242,0.49 -0.484,1.21 -0.242,1.94 -0.242,0 -0.485,-0.24 -0.485,-0.48 -0.242,0.48 -1.453,1.94 0,2.18 -0.969,-0.24 -0.484,1.21 -0.242,1.94 l -0.484,-0.25 c 0.484,0.73 0.726,0.97 0.726,1.7 -0.242,0.24 -0.484,0 -0.242,-0.24 -0.484,0.48 0.485,0.72 -0.242,1.21 l -0.242,-0.49 c -0.243,0.49 0,0.73 0.242,1.22 0,0.48 -0.485,0.97 -1.211,0.97 0.242,0.24 0.726,0.72 0.484,0.96 -0.242,0 -0.242,-0.24 -0.484,-0.24 -0.727,0.97 0.242,1.7 -0.485,2.43 -0.242,0 -0.242,0 -0.484,0 0.242,-0.97 0.484,-1.46 0.484,-1.46 -0.484,-0.24 -0.969,0.49 -1.453,-0.24 0.242,0.73 0.969,1.94 0.484,2.66 h -0.242 c 0,0.25 0,0.25 0,0.49 -0.242,0.24 -0.242,0.24 -0.242,0.48 -0.485,0 -0.485,0.73 -0.485,0.97 0.727,0.25 0.485,0.49 1.212,0.25 0,0 0,0 0,-0.25 0,0 0,0 0,-0.24 0,-0.24 0,-0.48 0.242,-0.73 0.242,0.25 0.484,0.73 0,0.97 0.484,0.25 0.726,0.49 0.969,0.73 -0.969,0.24 -1.696,0.97 -2.423,0.97 0.243,1.21 -0.242,2.42 0.969,3.39 0,0.24 -0.484,0.24 -0.726,0.24 0,-0.24 0,-0.48 -0.243,-0.48 0.243,0.73 -0.242,1.7 0.485,1.94 -0.485,0.72 -0.727,-0.73 -0.727,0.48 l -0.242,-0.24 c -0.969,0.97 -0.485,2.18 0,2.91 0.484,0.97 0.969,1.69 0.242,2.91 0,-0.25 0.242,-0.25 0.242,-0.25 -0.726,2.43 0.727,5.09 -0.484,7.51 -0.242,0.73 0.242,0.73 0.727,1.22 l -0.727,0.24 0.727,0.73 c 0.242,0.48 -0.243,0.97 -0.485,1.45 -0.484,0.48 -0.727,0.73 -0.242,1.45 h 0.484 c -0.242,0.49 0,1.46 -0.484,1.22 0,0 0.484,0.24 0.242,0.48 h -0.484 l 0.484,1.21 c -0.484,0.97 -1.453,-0.48 -1.695,0.97 0,0.49 0.968,1.7 1.211,1.45 0,-0.24 0.242,-0.48 0.726,-0.48 l 0.243,0.48 c 1.211,0.25 2.18,0.49 3.149,-0.48 -0.243,-0.24 -0.485,-0.48 -0.727,-0.73 l 0.484,-0.24 v 0.49 c 0.485,-0.25 0,-0.49 -0.242,-0.73 0.242,0 0.485,0 0.727,-0.24 l -0.969,-0.97 c 0.484,0 0.727,0.48 1.211,0 -0.484,-0.49 -0.969,0.24 -1.211,-0.49 0.484,-0.24 0.969,-0.24 0.484,-0.72 0.243,0 0.485,0 0.485,0.24 -0.242,-0.49 0,-1.21 -0.485,-1.46 0.727,-0.24 0,-1.45 0.969,-1.45 -0.242,-0.24 -0.726,-0.73 -0.969,-1.21 1.211,0.73 0,-1.21 1.454,-1.21 -1.211,-0.49 -0.485,-1.7 -1.211,-2.67 l 0.242,0.24 c 0,-0.48 0.484,-0.72 0.726,-0.97 -0.968,0 -1.211,-0.72 -1.695,-1.21 0.969,-0.48 1.211,0.24 1.938,0.24 -0.727,0 -0.727,-0.96 -1.454,-0.72 0.485,-0.49 0.243,-0.49 0.969,-0.73 -1.211,0 -0.242,-0.48 -0.969,-0.73 0.485,-0.72 1.212,-0.24 0.727,-0.96 0.969,-0.49 1.453,0.24 1.453,0.24 z m 0,-16 c 0,0.25 0,0.25 0,0.25 z m 0.243,-1.45 c 0,0.24 -0.243,0.24 -0.243,0.49 -0.242,0 -0.484,-0.25 -0.484,-0.25 0.242,0.25 0.484,0 0.727,-0.24 z m -5.087,1.7 c 0,-0.25 0,-0.25 0.242,-0.25 -0.242,0.25 -0.242,0.25 -0.242,0.25 l 0.242,0.24 c -0.242,0 -0.242,0 -0.242,-0.24 z"
           fill="#6a4d93"
           id="path1022" />
        <path
           d="m 997.507,1040.48 h -0.242 v 0.24 z"
           fill="#6a4d93"
           id="path1024" />
        <path
           d="m 1010.59,930.467 c 0,0 0.24,-0.242 0,0 0.24,-0.242 0,-0.242 0,0 z"
           fill="#6a4d93"
           id="path1026" />
        <path
           d="m 1011.31,927.075 0.25,-0.485 c 0,0.242 0,0.485 -0.25,0.485 z"
           fill="#6a4d93"
           id="path1028" />
        <path
           d="m 1012.52,964.875 c 0,0.242 0,0.242 0,0 0.25,0.484 0,0.242 0,0 z"
           fill="#6a4d93"
           id="path1030" />
        <path
           d="m 1010.1,952.76 c 0.24,0 0.24,0.242 0.49,0.242 0,-0.242 0,-0.485 -0.49,-0.242 z"
           fill="#6a4d93"
           id="path1032" />
        <path
           d="m 1013.74,918.109 c 0,-0.242 0.72,-0.485 0.48,-0.969 h -0.24 c 0.48,0.242 -0.49,0.727 -0.24,0.969 z"
           fill="#6a4d93"
           id="path1034" />
        <path
           d="m 1009.86,921.744 0.48,-0.727 c -0.24,0 -0.72,0.242 -0.72,-0.243 -0.97,0.727 0.48,-0.242 0.24,0.97 z"
           fill="#6a4d93"
           id="path1036" />
        <path
           d="m 1008.89,924.167 c 0,-0.485 -0.48,0 -0.48,-0.243 0.24,0.485 0.24,0.727 0.48,0.243 z"
           fill="#6a4d93"
           id="path1038" />
        <path
           d="m 1006.95,943.794 h -0.72 c 0.24,0.242 0.24,0 0.72,0 z"
           fill="#6a4d93"
           id="path1040" />
        <path
           d="m 1010.1,947.186 0.24,-0.242 h -0.48 z"
           fill="#6a4d93"
           id="path1042" />
        <path
           d="m 1007.44,982.321 h 0.72 c -0.24,-0.242 -0.96,-0.242 -0.72,0 z"
           fill="#6a4d93"
           id="path1044" />
        <path
           d="m 1007.44,996.375 c -0.49,0 -0.73,0.484 -0.24,0.727 0,-0.243 0.24,-0.485 0.24,-0.727 z"
           fill="#6a4d93"
           id="path1046" />
        <path
           d="m 993.631,1034.42 -0.242,-0.24 v 0.48 z"
           fill="#6a4d93"
           id="path1048" />
        <path
           d="m 1077.2,890.486 c 0,0.242 0,0.727 0.24,0.485 z"
           fill="#6a4d93"
           id="path1050" />
        <path
           d="m 1078.41,891.939 c 0.24,-0.484 0.49,-0.969 0.24,-1.696 -0.24,0.727 -0.24,0.485 -0.48,1.454 -0.24,0 -0.24,-0.242 -0.24,-0.485 0,0.243 -0.25,-0.242 -0.25,0.243 0.25,0.484 0.49,0.727 0.73,0 0,0 0,0.242 0,0.484 z"
           fill="#6a4d93"
           id="path1052" />
        <path
           d="m 1074.29,907.932 c 0,0 0.25,0 0,0 0.25,-0.242 0,-0.242 0,0 z"
           fill="#6a4d93"
           id="path1054" />
        <path
           d="m 1082.05,903.086 h -0.25 c 0,0.242 0,0.242 0.25,0 z"
           fill="#6a4d93"
           id="path1056" />
        <path
           d="m 1081.08,890.243 c 0,0 -0.25,0 -0.25,0.242 0,-0.242 0,-0.242 0.25,-0.242 z"
           fill="#6a4d93"
           id="path1058" />
        <path
           d="m 1001.87,900.905 0.24,-0.485 z"
           fill="#6a4d93"
           id="path1060" />
        <path
           d="m 1046.19,912.778 c 0.25,0.485 -0.48,0.727 0,1.454 0,-0.242 0.49,-0.969 0,-1.454 z"
           fill="#6a4d93"
           id="path1062" />
        <path
           d="m 1065.33,908.901 v 0.243 c 0.24,0 0.24,0 0,-0.243 z"
           fill="#6a4d93"
           id="path1064" />
        <path
           d="m 1062.91,910.355 c 0,0 0,-0.242 0,0 -0.24,0 0,0 0,0 z"
           fill="#6a4d93"
           id="path1066" />
        <path
           d="m 1009.13,910.839 c 0,-0.242 0.25,-0.484 0.25,-0.484 -0.25,0.242 -0.73,0.242 -0.25,0.484 z"
           fill="#6a4d93"
           id="path1068" />
        <path
           d="m 1080.83,890.485 c 0,-0.242 0.25,-0.242 0.25,-0.242 0,0 0,0 -0.25,0 0,0.242 0,0.242 0,0.242 z"
           fill="#6a4d93"
           id="path1070" />
        <path
           d="m 1062.18,915.928 c 0,-0.242 -0.24,-0.242 -0.24,-0.485 0,0 0,0 0,0.243 z"
           fill="#6a4d93"
           id="path1072" />
        <path
           d="m 1005.98,909.629 c 0.25,0.242 0.73,-0.485 1.22,-0.97 0.48,0.243 -0.25,0.727 -0.49,1.212 0.49,0 1.21,-0.485 1.21,-0.242 0,0.242 0,0.242 -0.24,0.242 0.73,-0.242 0.97,0.485 1.7,0 v 0.242 c 0.24,-0.484 0.48,-0.727 0.72,-0.969 0.24,0 0.49,-0.242 0.24,0.242 0,0 -0.24,0 -0.48,0.243 h 0.24 c -0.24,0.727 -0.48,0 -0.72,0.727 0.48,0 1.21,-0.243 1.45,0 -0.49,0.726 -0.73,-0.243 -0.73,0.726 l -0.24,-0.484 c -0.48,1.211 -0.24,-0.243 -0.73,1.211 0.49,0.485 0.73,0 1.21,0.485 0.25,-0.242 0.25,-0.485 0.73,-0.969 1.21,-0.243 -0.48,2.181 0.73,1.454 0.48,-0.485 0.97,-1.212 0.97,-0.485 l -0.49,0.727 c 0.49,0.242 0.97,-0.969 0.97,-0.242 -0.24,0.242 -0.48,0 -0.48,0.242 0,0.727 0.48,-0.242 0.72,-0.242 l -0.48,0.727 c 0.48,0.242 1.94,0.242 2.66,0.242 0,0.242 -0.24,0.484 -0.24,0.727 0.24,0 0.73,0 0.73,0 0,0 0.24,0 0.24,0.242 0.24,0.242 0.48,0.485 0.73,0.969 l 0.48,-0.484 c 0,0 0,0.242 0,0.484 0.24,0.485 0.24,-0.484 0.49,-0.727 0.24,0 0.24,0.485 0,0.727 0.97,-0.242 2.18,-0.727 2.42,0.243 l -0.24,0.242 c 0.48,0.485 0.97,-1.212 1.21,-0.485 0.97,0.485 2.18,0 2.66,1.212 0.24,-0.969 0.97,0.484 1.21,-0.727 0.49,0.727 0.25,0.969 0.97,1.696 0.24,0 0.49,-0.969 0.73,-0.969 v 0.727 l 0.48,-0.727 v 0.969 l 0.25,-0.242 c 0,0 -0.25,-0.243 -0.25,-0.485 0.49,-0.242 0.97,0.485 0.97,0.969 l 0.97,-0.484 c 0,0.242 -0.24,0.484 -0.24,0.484 0.48,-0.727 0,0.727 0.48,0.243 0,-0.243 0,-0.485 0,-0.485 0.25,0.485 0.73,0.485 0.97,0.485 l -0.24,0.484 c 0.73,0.243 1.45,0 2.18,0 -0.24,-0.242 0,-1.211 0,-1.211 v 0.727 c 0.24,-0.485 -0.24,-0.243 0.24,-0.97 0.24,0 0.24,0.97 0,1.212 l 0.49,-0.242 c 0,0.242 0,0.242 -0.25,0.727 0.25,-0.485 0.49,0.727 0.73,0 v 0.242 c 0.73,0 1.21,-0.242 1.94,-0.242 0,-0.727 0.24,-0.485 0.48,-0.97 0.49,0.243 0.97,0.727 1.21,0.727 0.25,-0.242 0.25,-0.484 0.25,-0.969 0,0.727 0.48,0.727 0.24,0.969 0.48,0 0.73,0 1.69,-0.484 0,-0.243 -0.24,-0.485 0,-0.485 0.25,0 0.25,0.242 0.25,0.485 0.97,-0.727 1.93,2.18 3.15,0.969 0.24,-0.242 0.72,-0.485 0.96,-0.727 0.49,0 -0.24,0.485 0,0.969 0.73,-0.969 1.46,0 2.18,-0.727 0.73,1.697 1.94,-0.242 2.91,0.727 v -0.484 c 0.24,-0.485 0.24,0.242 0.49,0.242 0,-0.242 -0.25,-0.242 -0.25,-0.727 1.46,-0.727 3.4,0.242 5.09,0.242 0.73,0 -0.24,-2.18 0.73,-1.454 v 0.727 c 0.97,-1.211 2.42,-0.484 3.39,-1.696 0,0.243 0,0.485 0,0.485 0.48,0.484 0.97,-0.242 0.73,-0.727 0.24,0 0.24,0.485 0.24,0.485 0.24,0.242 0.48,-0.97 0.72,-0.485 v 0.242 c 0,-0.242 0.73,0 0.49,-0.727 0.48,0.243 0.73,-0.484 0.97,-0.242 0,-0.727 0.72,0.242 0.48,-0.727 0.24,0.969 0.73,0.727 0.97,0.242 0,0.243 0.24,0.243 0.24,0.727 0.25,0 0.49,-0.242 0.49,-0.969 0.72,1.212 0.97,-1.211 1.45,0.485 0.73,-0.727 1.7,-1.212 2.42,-1.454 0,0.969 -0.97,0.242 -0.72,1.454 0.72,-0.485 0.97,-1.454 1.93,-1.454 0.25,0 0,0.484 0,0.727 0.73,-0.485 1.7,-0.243 2.18,-0.727 v 0.242 c 0.25,0 0.25,0 0.25,-0.484 v 0.242 c -0.25,-0.727 0.24,-1.696 0.24,-1.939 0,1.454 0.73,0.243 0.73,1.939 0,0 0.24,-0.485 0,-0.727 0.24,0 0.24,0.242 0.24,0.727 0.48,-0.485 0.24,-0.969 0.72,-0.969 0,0.242 0,0.242 0,0.727 0.25,-0.485 0.25,-0.97 0.73,-0.97 0,0.243 0,0.243 0,0.243 0.73,-0.243 0.73,-1.454 1.7,-1.212 0,0.969 0.24,0.242 0.72,0.969 l 0.25,-0.484 -0.25,-0.243 c 0.25,0 0.49,-0.727 0.73,-0.727 v 0.485 l 0.48,-0.485 -0.48,-0.242 c 0.24,-0.484 -0.48,-0.969 0,-0.969 0,0.242 0.24,-0.242 0.73,0.242 0,-0.242 0,-0.727 0.48,-0.484 0.24,0.242 0.49,0.969 0.49,0.969 -0.25,-0.727 0.72,-0.727 0.48,-1.454 0,0.242 0.24,0.727 0.24,0.727 l -0.24,-0.485 c 0.24,0 0.24,0.243 0.48,0.485 0.49,-0.242 -0.72,-0.969 0,-0.727 v 0.242 c 0.73,-0.242 0.73,-0.969 1.22,-1.211 0.72,0.484 -0.25,0.484 0.48,0.969 0.49,-0.727 0.49,-1.938 1.21,-2.423 h -0.24 c -0.97,-0.969 0.97,0 0.73,-0.727 0,0.242 0.48,0.485 0.48,0.485 0.49,-0.485 0.49,-1.212 0.24,-2.181 l 0.25,0.242 c 0.48,-0.242 0.48,-0.969 0.72,-1.211 -0.24,-0.243 -0.24,-0.243 -0.72,-0.243 1.93,-0.969 -0.97,-1.938 0.72,-2.907 l 0.24,0.242 -0.24,-0.727 c -0.48,0 -0.24,0 -0.72,0.242 -0.25,0 -0.49,-0.242 -0.73,-0.484 0.48,0.242 0.97,0 1.21,-0.243 -0.24,0 -0.24,0 -0.48,0 0.96,-0.484 -1.22,0 -0.49,-0.484 h 0.24 c -0.24,-0.243 -0.48,-0.243 -0.48,-0.485 0.73,-0.242 0.24,0.242 0.73,0.242 0,-0.242 -1.22,-0.484 -0.73,-0.727 0.24,0 0.24,0.243 0.48,0.485 0.73,-0.485 0.49,-0.485 0.73,-0.727 l 0.24,-0.484 -0.24,0.242 c -1.7,0 -0.48,-0.727 -1.7,-0.969 1.22,0.242 0.73,0 1.46,0 0.24,-0.243 0.48,-0.485 0.48,-0.243 -0.72,-0.242 0.49,-0.727 -0.48,-0.969 0.24,0 0,-0.485 0.48,-0.485 -0.24,-0.484 -0.48,0.243 -0.72,0.243 -0.49,-0.243 -0.25,-0.485 -0.25,-1.212 0,-0.484 -0.24,-0.969 -0.97,-0.969 -0.96,-0.242 -1.45,0.485 -2.18,0.485 0,-0.485 0.49,-0.727 0.49,-0.727 -0.24,-0.485 -0.49,-0.485 -0.97,-0.243 0.24,-0.242 0.24,-0.242 0,-0.727 -0.24,0 -0.48,0.727 -0.73,0.485 0,-0.242 0.24,-0.727 0.49,-0.969 -0.49,0.242 -0.97,0.484 -1.21,0.727 0,-0.485 0.24,-0.485 0.48,-0.969 -0.48,0.242 -0.97,0.242 -1.21,0.969 l 0.24,0.242 c 0,0 0,-0.485 0,-0.727 0.24,-0.485 0.49,0.242 0.49,0.485 l -0.25,0.242 c 0,1.454 0.97,-0.242 1.46,0 -0.25,0.242 -0.24,0.727 -0.49,0.969 0.25,-0.242 0.49,-0.484 0.73,-0.727 0,0.243 -0.24,0.727 -0.49,0.97 0,0.484 0.49,-0.243 0.25,0.242 v 0.242 l 0.48,-0.242 c -0.24,0.242 -0.24,0.727 -0.48,0.485 0,0.726 0.97,-0.485 0.72,0.242 0.73,0 0.73,-0.727 1.7,-0.727 -0.48,0.485 -0.97,0.969 -1.45,1.454 l 0.72,-0.485 c 0,0 0,0.242 -0.24,0.242 0.49,0 0.24,-0.242 0.73,-0.242 -0.49,0.727 0.48,0.727 -0.73,1.212 0.49,0 0.49,-0.485 0.73,-0.243 -1.21,0.485 0.24,0.243 -0.24,0.727 -0.73,0 -0.25,-0.242 -0.97,0 1.21,0 -0.25,0.727 0,0.97 0.97,-0.243 0.48,0.484 0.72,0.969 -0.24,0 -0.48,0.727 -0.72,1.211 h -0.25 c 0.97,0 0.73,0.485 0.97,0.727 -0.48,0 -0.72,0 -0.97,-0.242 v 0.242 c 0.25,0 0.49,0.243 0.49,0.243 h -0.73 c 0,0.484 0.73,0.726 0.24,1.211 0.73,0 1.7,-0.242 2.18,0.242 -0.24,0 -0.96,0 -0.96,0 l 0.24,0.243 -0.49,-0.243 c -0.24,0.243 0.49,0.243 0.49,0.243 -0.49,0 -0.24,0 -0.73,0 0,0 0.24,-0.243 0,-0.243 0,0.243 -0.48,0.485 -0.73,0.485 0.25,0 0.73,0 0.73,0.242 0,0.243 -0.48,0 -0.73,0.243 0.25,0 0,0.242 0.73,0.242 0,0 -0.24,0 -0.48,0 0.24,0.242 0,0.727 0.72,0.727 0.49,0.727 -0.72,0.969 -0.72,1.454 l -0.25,-0.243 c 0,0.485 -0.24,0.727 0,1.212 0,0 -0.48,0 -0.72,-0.242 0,0.242 0.24,0.484 -0.49,0.484 0,-0.484 -0.24,-0.242 0,-0.484 -0.48,0 -0.72,-0.243 -0.48,0.484 -0.24,-0.484 -0.73,-0.484 -0.73,-0.242 l 0.49,0.242 c 0,0.243 -0.25,0.243 -0.49,0.243 l -0.48,-0.727 c -0.97,-0.485 0,1.938 -1.21,0.969 0.24,0.485 0.48,0.242 0.72,0.727 -0.24,0 -1.21,-0.727 -1.21,-0.727 -0.48,-0.242 0.24,1.211 -0.24,1.211 0.24,0.243 0.48,0.97 0.24,1.212 -0.48,0 -0.73,-0.969 -0.73,-1.212 h 0.25 c 0,-0.242 0.24,-0.242 0,-0.484 v 0.242 c -0.25,-0.242 -0.73,0 -0.73,-0.485 0,0.243 0,0.485 0.24,0.485 -0.48,-0.242 -0.72,0.242 -1.21,0 0,0.242 0.24,0.485 0.24,0.485 -0.72,-0.243 0,0.727 -0.48,0.969 -0.49,-0.242 -0.24,-0.969 -0.49,-0.485 -0.24,-0.242 -0.24,-0.727 -0.24,-0.969 -0.24,0.727 -0.72,-0.242 -0.97,-0.242 l 0.25,-0.243 c 0,0.243 -0.25,0.243 -0.25,0.243 l 0.25,0.484 c -0.25,0 -0.25,0 -0.25,-0.242 0,0.485 0.25,0.969 0.25,1.454 -0.25,-0.242 -0.49,0.485 -0.73,-0.242 0.48,0.242 -0.24,-0.727 0.24,-0.97 0,0 -0.24,0.243 -0.24,0 v -0.242 c -0.73,-0.484 0,0.969 -0.49,0.969 0,-0.484 -0.24,-0.727 -0.24,-0.727 0.24,0 0.24,0.727 0,0.97 -0.48,-0.243 -0.24,0.242 -0.48,0.242 l 0.24,0.242 c 0,0.485 -0.24,0.485 -0.48,0.485 0,-0.242 0.24,-0.242 0,-0.485 -0.25,0.727 -0.73,-0.727 -0.97,0 -0.25,-0.242 -0.25,-0.727 -0.25,-0.969 -0.24,0.727 -0.48,-0.485 -0.96,0 0.24,0.485 0.24,0.485 0,0.969 l 0.72,-0.484 -0.24,0.969 c 0.24,0 0.48,-0.485 0.48,-0.242 -0.24,0.484 -0.24,0.242 0,0.727 -0.48,-0.727 -0.48,0.484 -0.96,0 l -0.25,-1.454 c -0.48,-0.485 -0.72,0.969 -1.45,0.484 l 0.24,0.243 c 0,0.484 -0.48,0.242 -0.72,0.484 0,-0.484 -0.25,-0.727 -0.25,-0.969 0,0.242 -0.48,0 -0.48,0.969 l -0.49,-0.484 c -0.72,-0.243 -0.48,1.453 -0.96,1.453 0,-0.484 -0.25,-0.726 0,-1.211 -0.25,0 -0.49,0 -0.25,0.242 -0.24,-0.242 -0.48,0.727 -0.72,0.243 0,0.242 0,0.726 -0.25,0.726 v -0.242 c 0,0.242 -0.24,0.485 0,0.969 -0.96,-1.454 -1.45,0.485 -2.42,-0.727 -0.48,0.243 -0.72,0.485 -1.21,0.727 0,-0.242 0,-0.242 0,-0.242 -0.48,-0.242 0,1.454 -0.48,0.969 -0.49,-0.727 0.24,-0.484 0,-0.727 -0.49,-1.454 -0.49,0.485 -1.21,-0.484 -0.49,-0.485 -0.49,0.727 -0.97,0.727 v -0.243 c 0,0.97 -0.73,1.212 -0.97,1.697 0,-0.727 0,-0.485 0,-0.97 -0.24,0.243 0.24,0.97 0,1.212 -0.24,-0.242 -0.49,-0.485 -0.73,-1.212 h 0.24 c -0.48,-0.727 -0.48,0.243 -0.72,0 v -0.484 c -0.49,0.242 -0.25,1.211 -0.97,1.211 v 0.243 c -0.24,0.969 -0.49,-0.485 -0.49,0.242 l -0.24,-0.969 c -0.24,0.242 -0.48,0.969 -0.97,1.211 0,-0.727 0.49,-1.211 0.73,-1.696 -0.24,0 -0.73,0.242 -0.73,0.727 l 0.24,-0.242 c -0.24,0.727 -0.48,1.211 -0.96,1.211 -0.25,-1.938 -1.22,-0.242 -1.7,-1.696 -0.73,0.727 -1.45,0 -2.42,0 0.48,1.454 -0.25,0 0,1.454 -0.25,0 -0.25,0 -0.25,0 l -0.72,-0.969 c -0.24,-0.485 0.24,-0.243 0.24,-0.727 -0.48,0 -0.24,-0.727 -0.48,-0.97 0,0.485 0,0.727 -0.49,0.485 l 0.49,0.727 c -0.49,0.727 -0.49,-1.212 -1.22,-0.485 0,-0.242 0,-0.242 0.25,-0.484 -0.25,0.242 -0.97,0 -1.21,1.211 0,-0.242 0,-0.484 0,-0.727 -0.73,-0.242 -1.7,0.97 -2.43,0.243 v -0.243 c -0.24,0 -0.48,0.727 -0.48,0.243 0,-0.243 0,-0.243 0,-0.485 0,0 -0.49,0.485 -0.73,0.242 l 0.24,-0.484 c -0.72,-0.485 -1.45,0.727 -2.18,0.969 0,-0.969 -0.72,-1.454 -0.96,-1.696 v -0.242 c -0.73,-0.243 -1.46,0.726 -2.43,1.211 -0.48,-1.211 -1.69,-0.727 -2.42,-1.454 0,0.243 0,0.727 -0.24,0.969 -0.24,-0.242 -0.73,0.727 -0.49,-0.242 0,-0.969 -0.48,-0.727 -0.72,-0.727 l -0.24,1.212 c -0.73,-1.939 -2.18,0.484 -2.43,-1.212 -0.24,0.243 -0.48,0.242 -0.72,0.485 v -0.727 c -0.49,-0.242 -0.73,-0.242 -1.46,-0.242 l 0.25,-0.485 c -0.25,0 -0.73,1.938 -1.22,1.938 v -0.969 c -0.72,0 -1.21,-0.969 -1.93,-0.242 0,-0.242 0,-0.485 0.24,-0.485 -0.24,0 -0.97,-0.969 -1.21,0.485 0.24,-0.969 -0.73,-0.242 -0.97,0 l 0.24,-0.727 c -0.48,0.727 -0.48,0.969 -0.97,1.212 0,0 0,-0.485 0.24,-0.243 -0.24,-0.484 -0.48,0.485 -0.72,0 l 0.24,-0.242 c -0.24,-0.242 -0.24,0 -0.73,0.485 -0.24,0.242 -0.48,-0.485 -0.48,-0.97 -0.24,0.243 -0.49,0.727 -0.73,0.485 0,-0.242 0.24,-0.242 0.24,-0.485 -0.48,-0.727 -1.21,0.485 -1.45,-0.242 0,-0.242 0,-0.242 0,-0.485 0.49,0 0.97,0.243 0.97,0.243 0.24,-0.485 -0.24,-0.97 0.48,-1.454 -0.24,0.242 -0.72,0.484 -0.97,0.727 -0.24,0.242 -0.48,0.484 -0.48,0.242 0,0 0,0 0,-0.242 0,0 0,0 -0.24,0 v -0.243 c 0.24,-0.484 0,-0.242 -0.24,-0.484 -0.25,0.727 -0.49,0.484 -0.49,0.969 0,0 0,0 0.24,0 h 0.25 c -0.25,0.242 -0.49,0.485 -0.49,0 -0.24,0.242 -0.48,0.727 -0.73,0.969 0.25,-0.969 0.25,-1.696 0.49,-2.181 -0.73,0 -1.45,-0.484 -2.42,0.485 -0.25,0 0,-0.485 0,-0.727 0.24,0 0.24,0 0.48,-0.242 -0.48,0.242 -0.97,-0.485 -1.45,0.242 -0.24,-0.484 0.72,-0.484 0,-0.727 l 0.24,-0.242 c 0,-1.696 -2.66,0.969 -2.66,-1.212 0,0.243 0,0.243 0,0.243 -0.49,-1.454 -2.67,-1.212 -2.91,-3.15 -0.24,-0.485 -0.49,0 -0.97,0 l 0.48,-0.485 -0.96,0.242 c -0.97,0 0.48,-1.938 -0.97,-1.696 l -0.25,0.485 c -0.24,-0.242 -0.72,-0.242 -0.48,-0.727 0,0 -0.48,0.242 -0.24,0 l 0.24,-0.242 h -0.97 c -0.24,-0.485 0.97,-1.212 0.49,-1.697 -0.25,0 -1.22,0.243 -1.46,0.485 0,0 0,0.485 -0.24,0.727 h -0.24 c -0.73,0.727 -1.698,1.696 -1.698,2.665 l 0.727,-0.242 -0.242,0.485 -0.243,-0.243 c -0.242,0.485 0.243,0.243 0.485,0 -0.242,0.243 -0.242,0.485 -0.242,0.485 l 0.973,-0.485 c -0.25,0.485 -0.731,0.485 -0.731,0.97 0.481,-0.243 0.481,-0.97 0.971,-0.97 -0.24,0.485 -0.49,0.727 0,0.727 -0.24,0.243 -0.24,0.243 -0.49,0.485 0.49,-0.242 0.49,0.242 0.97,-0.242 -0.24,0.727 0.73,0.242 0,1.211 0.24,-0.242 0.73,-0.484 0.97,-0.242 -1.21,0.727 0.49,0.484 -0.48,1.454 0.97,-0.727 0.97,0.242 1.93,0 0,0 -0.24,0.242 -0.24,0 0.24,0.242 0,0.484 0,0.727 0.73,-0.727 1.21,-0.485 1.7,-0.727 -0.49,0.969 -0.97,0.727 -1.46,1.454 0.49,-0.485 0.97,-0.243 1.22,-0.727 -0.25,0.484 0,0.242 -0.49,0.969 0.73,-0.969 0.24,0 0.97,-0.485 0,0.727 -0.73,0.969 0,0.969 0.97,2.424 0.48,2.424 0.48,2.424 z m 9.94,3.877 h -0.25 c 0,-0.243 0,-0.243 0.25,0 z m 0.72,0 c 0,0 0,0 -0.24,0 0,-0.243 0,-0.485 0.24,-0.485 0,0.242 0,0.242 0,0.485 z m 0,-4.847 c 0.25,0 0.25,0 0,0 0,0.243 0,0.243 0,0 l -0.24,0.243 c 0.24,0 0.24,-0.243 0.24,-0.243 z"
           fill="#6a4d93"
           id="path1074" />
        <path
           d="m 1027.54,917.382 v -0.242 l -0.24,0.242 z"
           fill="#6a4d93"
           id="path1076" />
        <path
           d="m 1084.71,897.028 0.24,-0.242 c -0.24,0 -0.24,0 -0.24,0.242 z"
           fill="#6a4d93"
           id="path1078" />
        <path
           d="m 1077.68,910.355 c 0,0.242 0,0.242 0,0.484 0.25,-0.242 0.25,-0.242 0,-0.484 z"
           fill="#6a4d93"
           id="path1080" />
        <path
           d="m 1077.44,910.84 c 0.24,0 0.24,0 0.24,-0.242 0,0 -0.24,0 -0.24,0.242 z"
           fill="#6a4d93"
           id="path1082" />
        <path
           d="m 1078.65,890.243 c 0.25,-0.242 0.25,-0.242 0,0 z"
           fill="#6a4d93"
           id="path1084" />
        <path
           d="m 1082.53,890.97 c -0.24,-0.242 -0.24,-0.727 -0.49,-0.727 v 0.242 c 0.25,-0.242 0.25,0.727 0.49,0.485 z"
           fill="#6a4d93"
           id="path1086" />
        <path
           d="m 1081.8,894.847 c 0,-0.242 0,-0.242 0,-0.484 -0.24,0.242 -0.48,0.485 -0.72,0.242 -0.49,0.97 0.72,-0.242 0.72,0.242 z"
           fill="#6a4d93"
           id="path1088" />
        <path
           d="m 1081.56,896.059 c -0.24,-0.242 -0.48,0 -0.48,0 0.24,0.242 0.24,0.242 0.48,0 z"
           fill="#6a4d93"
           id="path1090" />
        <path
           d="m 1080.11,905.266 -0.49,-0.484 c 0,0.242 0.25,0.242 0.49,0.484 z"
           fill="#6a4d93"
           id="path1092" />
        <path
           d="m 1080.83,909.144 h 0.49 l -0.24,-0.485 z"
           fill="#6a4d93"
           id="path1094" />
        <path
           d="m 1077.44,906.236 v -0.242 l -0.24,0.484 z"
           fill="#6a4d93"
           id="path1096" />
        <path
           d="m 1060.49,910.355 0.24,0.727 c 0.24,-0.242 0,-1.212 -0.24,-0.727 z"
           fill="#6a4d93"
           id="path1098" />
        <path
           d="m 1053.22,913.021 c -0.24,-0.242 -0.48,-0.485 -0.48,-0.242 0,0 0.24,0.242 0.48,0.242 z"
           fill="#6a4d93"
           id="path1100" />
        <path
           d="m 1030.21,911.567 v -0.242 l -0.24,0.242 z"
           fill="#6a4d93"
           id="path1102" />
      </g>
    </g>
  </g>
</svg>
