<?xml version="1.0" encoding="UTF-8" standalone="no"?>
<svg
   xmlns:dc="http://purl.org/dc/elements/1.1/"
   xmlns:cc="http://creativecommons.org/ns#"
   xmlns:rdf="http://www.w3.org/1999/02/22-rdf-syntax-ns#"
   xmlns:svg="http://www.w3.org/2000/svg"
   xmlns="http://www.w3.org/2000/svg"
   xmlns:sodipodi="http://sodipodi.sourceforge.net/DTD/sodipodi-0.dtd"
   xmlns:inkscape="http://www.inkscape.org/namespaces/inkscape"
   viewBox="0 0 841.9 595.3"
   version="1.1"
   id="svg10"
   sodipodi:docname="logo.svg"
   inkscape:version="1.0.1 (3bc2e813f5, 2020-09-07)">
  <metadata
     id="metadata16">
    <rdf:RDF>
      <cc:Work
         rdf:about="">
        <dc:format>image/svg+xml</dc:format>
        <dc:type
           rdf:resource="http://purl.org/dc/dcmitype/StillImage" />
      </cc:Work>
    </rdf:RDF>
  </metadata>
  <defs
     id="defs14" />
  <sodipodi:namedview
     pagecolor="#ffffff"
     bordercolor="#666666"
     borderopacity="1"
     objecttolerance="10"
     gridtolerance="10"
     guidetolerance="10"
     inkscape:pageopacity="0"
     inkscape:pageshadow="2"
     inkscape:window-width="1366"
     inkscape:window-height="715"
     id="namedview12"
     showgrid="false"
     inkscape:zoom="0.57500839"
     inkscape:cx="354.89788"
     inkscape:cy="345.68718"
     inkscape:window-x="-8"
     inkscape:window-y="-8"
     inkscape:window-maximized="1"
     inkscape:current-layer="svg10"
     inkscape:document-rotation="0" />
  <path
     id="path3662"
     d="m 165.67801,89.024842 c -7.14347,-0.0076 -14.19195,4.583401 -13.99186,13.784068 1.94514,92.3001 3.32002,184.59506 3.3754,276.89514 v 37.43644 c 0,16.11549 -0.62636,34.29304 -12.5703,46.74778 -11.94385,12.45913 -28.57276,14.80157 -44.228577,13.6012 -0.554377,-0.10994 -1.120239,-0.10994 -1.679682,-0.17443 -0.119397,-0.052 -0.196666,-0.092 -0.67312,-0.22412 l -3.882366,-0.68203 c -2.400803,-0.51505 -4.798975,-1.15195 -7.199647,-1.83724 -2.400661,-0.68572 -3.196299,-0.96768 -4.796791,-1.53808 l -2.635733,-0.74823 c -2.285783,-0.85554 0,0.008 -1.196777,-0.50688 -19.312404,-8.68347 -33.08889,-24.80402 -33.08889,-47.32145 -0.213004,-8.05771 1.489992,-16.0495 4.971817,-23.31977 2.149529,-4.48218 4.918974,-8.63832 8.230548,-12.34583 1.477005,-1.69838 3.06549,-3.29867 4.746964,-4.79693 0.740656,-0.68501 5.707334,-4.57458 1.995529,-1.82912 3.183989,-1.99206 5.489222,-5.11913 6.442735,-8.75427 0.957809,-3.63084 0.495766,-7.49229 -1.29659,-10.79109 -1.95805,-3.26913 -5.138428,-5.62735 -8.837477,-6.55955 -3.694826,-0.93221 -7.605303,-0.36141 -10.882892,1.58787 -16.290047,11.76108 -27.745415,29.0462 -32.231804,48.63502 -2.834971,12.91029 -2.453073,26.31377 1.113949,39.04098 3.567022,12.7273 10.219643,24.38463 19.354402,33.93643 11.280034,10.67982 24.920184,18.54419 39.814115,22.95408 14.893781,4.40979 30.626937,5.24119 45.899637,2.42751 12.5571,-2.03464 24.32186,-7.42344 34.06104,-15.60468 9.73897,-8.18118 17.09097,-18.84397 21.25832,-30.86041 5.71653,-16.57517 5.71143,-34.29287 5.71143,-51.89391 0,-36.84514 -0.13586,-73.67355 -0.40003,-110.48043 -0.57441,-64.35123 -1.50765,-128.6806 -2.80165,-192.99353 -0.20039,-9.173016 -7.43883,-13.77718 -14.5823,-13.784079 z m 536.98024,0.764788 c -14.94546,-0.245628 -29.9456,1.60905 -44.55306,5.58683 -4.71199,1.213327 -7.59586,4.06114 -9.0285,7.48234 -0.14926,0.32208 -0.24713,0.68794 -0.37476,1.03082 -0.10994,0.34063 -0.24269,0.67387 -0.3236,1.02268 -0.3577,1.26594 -0.61523,2.60788 -0.61523,4.12354 v 176.05028 c 0,0.11736 0,0.23229 0,0.3488 v 194.57321 c 0,18.4013 28.57416,18.4013 28.57416,0 V 305.95309 c 22.47609,7.34325 46.75533,8.15797 69.94271,2.07844 14.63415,-3.95864 28.29319,-10.91316 40.0966,-20.42671 11.80369,-9.51351 21.50615,-21.37491 28.48275,-34.83429 14.05525,-27.72324 16.52583,-59.89767 6.85918,-89.43848 C 816.85745,148.58291 808.52677,135.2204 797.43411,124.35752 786.19247,114.30778 773.18943,106.41683 759.08285,101.08761 741.00081,93.8878 721.87342,90.105475 702.65825,89.789324 Z M 580.622,90.812284 c -7.14391,-0.0076 -14.29153,4.595202 -14.29153,13.825626 0.38294,68.57813 0.38294,137.16438 0,205.74672 0,22.85799 -0.24713,45.71731 -0.73989,68.57951 0.65157,16.63054 0.0809,33.28245 -1.71246,49.83211 -2.28575,12.85922 -7.43074,24.80511 -19.20454,31.49228 -5.75488,3.1754 -12.12571,5.08834 -18.68094,5.60337 -6.55516,0.51059 -13.14046,-0.38369 -19.32102,-2.62711 -0.42152,-0.15216 -0.36215,-0.10611 -0.51579,-0.14986 -0.21299,-0.11504 -0.16104,-0.10611 -0.57366,-0.31615 -1.20035,-0.62564 -2.40105,-1.25175 -3.54188,-1.93708 -2.88586,-1.57918 -5.56716,-3.49782 -7.99766,-5.7198 -4.82281,-4.54173 -8.80942,-9.89978 -11.77204,-15.82925 -4.87817,-10.33919 -7.96999,-21.4321 -9.14501,-32.80571 -3.88617,-30.74544 -1.71182,-62.0074 -4.39786,-92.87205 -3.201,-36.1768 -11.76989,-72.29027 -31.20128,-103.38047 -8.20243,-13.39554 -19.31099,-24.77456 -32.5064,-33.29631 -13.19976,-8.51741 -28.13829,-13.95431 -43.72168,-15.91237 -26.59524,-3.21371 -53.57403,-0.66495 -79.09645,7.48231 -17.60112,5.26119 -10.10869,32.86806 7.60729,27.55157 l -0.40891,-0.79816 c 20.55083,-6.79347 42.27229,-9.32238 63.83207,-7.43247 12.44628,0.95777 24.46991,4.95209 35.00917,11.63921 10.54364,6.68715 19.28413,15.85745 25.45623,26.71178 18.45647,30.46025 25.08238,65.66492 27.0277,100.81162 1.71537,31.32008 0,62.86124 5.71141,94.01103 5.71657,29.2045 21.65675,57.15047 50.2313,68.5795 30.40073,12.17384 69.54741,0 85.72239,-28.5741 11.42899,-20.06139 10.86074,-43.14942 11.43116,-65.43693 0.28498,-20.69137 0.56995,-41.3745 0.73992,-62.06159 0.72356,-76.20169 0.83414,-152.50306 0.34063,-228.89199 0,-9.202742 -7.13953,-13.818784 -14.28307,-13.825673 z m 119.20139,27.376876 c 11.38168,-0.0765 22.77027,1.30898 33.88627,4.1651 23.71361,6.68715 46.57372,18.68273 57.54725,41.6599 20.45705,41.88919 0,95.847 -42.9734,113.10746 -12.75715,4.94191 -26.4331,7.04202 -40.08826,6.14388 -11.02114,-0.72504 -21.79687,-3.42297 -31.85821,-7.88138 v -154.8837 c 7.76316,-1.45244 15.61922,-2.25827 23.48635,-2.31126 z M 314.35155,255.58095 c -8.6486,-0.27757 -17.32094,1.13428 -25.51499,4.21506 -1.03773,0.32282 -2.0132,0.79013 -2.94297,1.3218 -0.14094,0.0667 -0.29387,0.0964 -0.43191,0.16624 -34.00173,15.31949 -47.08269,58.23827 -51.42873,92.07398 -4.74183,36.97705 -0.51951,80.52394 23.76895,110.41378 7.7895,9.35178 18.01604,16.38979 29.53866,20.31868 11.51838,3.93312 23.89733,4.60944 35.78175,1.97032 18.91634,-4.00119 33.66474,-17.82496 43.66353,-33.77022 20.80193,-33.09072 25.4829,-76.70073 20.11116,-114.70362 -2.36677,-20.75521 -10.25934,-40.49622 -22.85473,-57.1566 -8.76005,-10.93089 -20.75423,-18.80589 -34.26052,-22.51341 -5.06477,-1.39023 -10.24085,-2.16969 -15.4302,-2.33609 z m -2.79361,28.77356 c 5.20587,-0.089 10.3785,0.84894 15.22245,2.76018 2.32409,1.03861 4.55584,2.2659 6.68425,3.66632 l 1.05597,0.72357 c -0.20038,-0.21448 -0.0809,-0.20927 0.94763,0.64864 2.5071,2.13254 4.82981,4.45975 6.96677,6.96684 0.51506,0.68499 1.02832,1.37511 1.48798,2.11999 0.45569,0.74067 1.88701,2.9124 2.80229,4.39792 1.8812,3.08181 3.54087,6.29069 4.97114,9.60233 -0.80018,-1.8857 0.85398,2.28276 1.13908,3.14253 0.6301,1.82609 1.26005,3.65562 1.77076,5.71158 1.14499,3.77132 2.11809,7.65562 2.91825,11.43125 1.52829,7.27452 2.37439,14.68636 2.51913,22.12266 0.34063,8.76861 0.0519,17.55334 -0.86497,26.28785 -1.84304,14.74061 -5.68887,29.1633 -11.43095,42.86527 -1.48569,3.14142 -3.08442,6.22381 -4.85517,9.19496 -0.97066,1.54516 -1.88407,3.08695 -2.90985,4.57249 l -1.54634,2.17817 c -1.4856,2.11134 0.45494,-0.51873 -0.51575,0.68205 -1.98778,2.41774 -4.14845,4.68935 -6.45975,6.8006 -0.40003,0.3577 -2.20104,1.78022 -2.46924,2.04516 -1.22038,0.85406 -2.4582,1.68235 -3.75769,2.41092 -8.01534,4.37159 -17.41009,5.50082 -26.22966,3.14261 -4.27356,-1.13232 -8.3228,-2.96849 -11.99634,-5.42886 -0.66867,-0.42523 -1.32011,-0.88222 -1.94566,-1.37166 -1.3706,-1.25571 -2.68522,-2.45918 -3.94068,-3.77447 -1.2601,-1.31097 -3.20458,-3.65725 -2.51914,-2.80171 0.685,0.85989 -1.42343,-1.99571 -1.87894,-2.68529 -2.13676,-3.1158 -4.05106,-6.37602 -5.71952,-9.76855 -1.23018,-2.39648 -2.24275,-4.90281 -3.02608,-7.48235 -1.36215,-3.90329 -2.52157,-7.87033 -3.48352,-11.88857 -1.82621,-7.2107 -2.95834,-14.58277 -3.37562,-22.00622 -0.6004,-8.46639 -0.6004,-16.96518 0,-25.4316 0.4935,-8.71322 1.80102,-17.35566 3.89102,-25.83053 1.08545,-4.40131 2.33605,-8.80222 3.76615,-13.14395 0.68573,-2.1155 1.42771,-4.17097 2.22805,-6.22692 l 1.08878,-2.7518 c -0.74067,1.77074 -8.7e-4,-0.51357 0.57368,-1.13896 1.8262,-3.77564 3.71099,-7.43262 5.7115,-10.9741 l 3.31731,-4.97153 2.05327,-2.40268 c 1.20032,-1.43023 2.51735,-2.74174 3.83269,-4.05704 1.31094,-1.31107 3.88748,-3.37215 3.14254,-2.80172 -0.74066,0.57441 2.51139,-1.65481 3.36716,-2.16987 0.63378,-0.38666 1.31847,-0.67833 1.97023,-1.03092 0.12392,-0.0298 0.25082,-0.0223 0.37477,-0.0593 4.77583,-2.07725 9.91648,-3.19045 15.12232,-3.27558 z"
     style="fill:#7f529a;fill-opacity:1;stroke:#7f529a;stroke-width:11.573;stroke-miterlimit:4;stroke-dasharray:none;stroke-opacity:1" />
</svg>
